<svg width="120" height="157" viewBox="0 0 120 157" fill="none" xmlns="http://www.w3.org/2000/svg">
<path d="M44.4336 2C48.0256 2.00002 50.9415 4.89895 50.9434 8.49902V8.5498L52.4766 68.3086L52.5264 70.2568H60.0742L60.2188 68.4141L61.0381 57.9873L61.0439 57.9092V57.8311C61.0439 54.2906 63.9494 51.3839 67.5488 51.3838C71.1384 51.3838 74.0549 54.2786 74.0566 57.9082V57.9717L74.0605 58.0361L74.873 70.625L74.9941 72.4971H82.4746L82.6367 70.6738L83.375 62.3838L83.3828 62.2959V62.207C83.3828 58.6662 86.2864 55.7599 89.8877 55.7598C93.4735 55.7598 96.3977 58.6504 96.3994 62.3174V62.4053L96.4072 62.4932L97.1396 70.7383L97.2461 72.8389L97.3418 74.7383H103.924L104.216 73.0869L104.948 68.96L104.96 68.8945L104.967 68.8291L104.98 68.7051L104.992 68.5967V68.3623C104.992 64.8216 107.896 61.9161 111.497 61.916C115.096 61.916 118 64.8212 118 68.3623C118 68.3751 118 68.3914 118 68.4092C118 68.447 117.999 68.5021 117.999 68.5723C117.999 68.7133 117.998 68.921 117.998 69.1875C117.997 69.7211 117.998 70.4943 117.997 71.4521C117.996 73.3684 117.995 76.0264 117.994 78.9932C117.992 84.9271 117.991 92.0979 117.991 97.0459C117.991 101.761 116.193 112.411 114.333 122.106C113.412 126.905 112.492 131.396 111.801 134.689C111.455 136.336 111.167 137.681 110.966 138.615C110.865 139.082 110.786 139.447 110.732 139.693C110.706 139.816 110.686 139.911 110.672 139.974C110.665 140.005 110.66 140.029 110.656 140.045C110.655 140.053 110.653 140.059 110.652 140.062C110.652 140.064 110.652 140.066 110.651 140.067L110.65 140.068L110.641 140.115C109.95 143.656 107.906 147.42 104.939 150.288C101.983 153.146 98.2357 155 94.1641 155H49.8721C44.1123 155 38.9744 151.594 36.7656 146.324L36.7275 146.234L36.6807 146.147L36.6797 146.146C36.679 146.144 36.6779 146.143 36.6768 146.141C36.6741 146.136 36.6703 146.128 36.665 146.118C36.6545 146.099 36.6389 146.07 36.6182 146.031C36.5767 145.954 36.5143 145.841 36.4336 145.691C36.2721 145.393 36.0345 144.952 35.7285 144.387C35.1165 143.257 34.2323 141.627 33.1436 139.625C30.9658 135.621 27.968 130.131 24.6904 124.185C18.152 112.322 10.4686 98.5899 5.95801 91.248C4.4542 88.6712 3.39548 86.8456 2.73145 85.4424C2.04214 83.9856 1.96992 83.3562 2.00781 83.0732C2.02463 82.9477 2.07853 82.6603 2.89355 82.0527C3.75108 81.4135 5.05031 80.7084 7.04688 79.6309L7.08789 79.6074C8.08586 79.038 9.21091 78.7373 10.3438 78.7373C12.3293 78.7373 14.0214 79.8705 15.8496 81.8691L16.2168 82.2803L29.5723 97.6602L33.5918 102.958L37.1855 107.693V8.44434C37.1857 5.21733 40.4363 2 44.4336 2Z" fill="white" fill-opacity="0.4" stroke="white" stroke-width="4"/>
</svg>
