<svg width="579" height="68" viewBox="0 0 579 68" fill="none" xmlns="http://www.w3.org/2000/svg">
<path d="M339.912 0.666748C340.801 0.666748 341.49 0.866357 341.979 1.26636C342.512 1.71081 342.935 2.44442 343.246 3.46655L367.178 67.4001H363.912L363.889 67.3396C363.474 67.3539 363.048 67.228 362.689 66.9294L327.132 37.3513L315.912 67.4001H312.579L324.602 35.2468L311.992 24.7566L313.625 22.7332L325.652 32.4392L336.512 3.40015C336.779 2.46681 337.179 1.77721 337.712 1.33276C338.246 0.888627 338.979 0.666805 339.912 0.666748ZM339.912 3.86694C339.734 3.867 339.623 3.91096 339.579 3.99976C339.534 4.08864 339.512 4.15551 339.512 4.19995L328.199 34.4949L361.72 61.5476L340.246 4.19995C340.201 3.97773 340.089 3.86694 339.912 3.86694Z" fill="white"/>
<path d="M1.26667 63.7333H21.8667C25.9111 63.7333 29.0444 63.3778 31.2667 62.6667C33.4889 61.9556 35.0444 60.8222 35.9333 59.2667C36.8667 57.6667 37.3333 55.4444 37.3333 52.6C37.3333 50.0222 37.0444 47.9333 36.4667 46.3333C35.9333 44.7333 34.8889 43.2889 33.3333 42C31.8222 40.7111 29.5778 39.4 26.6 38.0667L12.7333 31.9333C9.17778 30.3333 6.51111 28.8 4.73333 27.3333C2.95556 25.8667 1.71111 24.1778 1 22.2667C0.333333 20.3111 0 17.7556 0 14.6C0 10.8667 0.577778 7.95556 1.73333 5.86667C2.88889 3.77778 4.77778 2.28889 7.4 1.4C10.0222 0.466667 13.6889 0 18.4 0H39.2V2.93334H18.6667C14.5778 2.93334 11.4222 3.31111 9.2 4.06667C6.97778 4.77778 5.4 5.97778 4.46667 7.66667C3.53333 9.35556 3.06667 11.7111 3.06667 14.7333C3.06667 17.3111 3.33333 19.4 3.86667 21C4.44444 22.6 5.48889 24.0444 7 25.3333C8.55556 26.6222 10.8444 27.9333 13.8667 29.2667L27.6 35.2667C31.1556 36.8222 33.8444 38.3556 35.6667 39.8667C37.4889 41.3333 38.7333 43.0444 39.4 45C40.0667 46.9556 40.4 49.5111 40.4 52.6667C40.4 56.2667 39.8444 59.0667 38.7333 61.0667C37.6222 63.0667 35.7556 64.5111 33.1333 65.4C30.5556 66.2445 26.9333 66.6667 22.2667 66.6667H1.26667V63.7333Z" fill="white"/>
<path d="M72.7643 0V66.6667H69.6977V0H72.7643Z" fill="white"/>
<path d="M124.686 66.6667C119.486 66.6667 115.375 66.0222 112.353 64.7333C109.375 63.4 107.22 61.2667 105.886 58.3333C104.597 55.3556 103.953 51.2889 103.953 46.1333V20.5333C103.953 15.3333 104.62 11.2667 105.953 8.33334C107.331 5.35556 109.553 3.22222 112.62 1.93334C115.686 0.644445 119.931 0 125.353 0H144.82V2.93334H125.486C120.731 2.93334 117.02 3.48889 114.353 4.6C111.731 5.66667 109.842 7.46667 108.686 10C107.575 12.4889 107.02 16 107.02 20.5333V46.1333C107.02 50.6667 107.597 54.2 108.753 56.7333C109.908 59.2222 111.82 61.0222 114.486 62.1333C117.197 63.2 120.975 63.7333 125.82 63.7333C130.62 63.7333 134.353 63.2667 137.02 62.3333C139.731 61.3556 141.664 59.8 142.82 57.6667C143.975 55.4889 144.553 52.4667 144.553 48.6V36.8667C144.553 35.3111 144.286 34.2667 143.753 33.7333C143.22 33.2 142.175 32.9333 140.62 32.9333H126.02V30H141.82C143.908 30 145.397 30.4444 146.286 31.3333C147.175 32.2222 147.62 33.7111 147.62 35.8V48.6C147.62 53.1333 146.953 56.7111 145.62 59.3333C144.331 61.9111 142.197 63.7778 139.22 64.9333C136.242 66.0889 132.153 66.6667 126.953 66.6667H124.686Z" fill="white"/>
<path d="M198.132 66.6667C193.243 66.6667 189.332 66.0444 186.398 64.8C183.509 63.5556 181.398 61.5778 180.065 58.8667C178.732 56.1556 178.065 52.5333 178.065 48V0H181.198V48C181.198 52.0889 181.754 55.2667 182.865 57.5333C183.976 59.7556 185.82 61.3556 188.398 62.3333C191.02 63.2667 194.687 63.7333 199.398 63.7333C204.065 63.7333 207.687 63.2667 210.265 62.3333C212.887 61.3556 214.754 59.7556 215.865 57.5333C216.976 55.2667 217.532 52.0889 217.532 48V0H220.732V48C220.732 52.5333 220.065 56.1556 218.732 58.8667C217.398 61.5778 215.265 63.5556 212.332 64.8C209.443 66.0444 205.532 66.6667 200.598 66.6667H198.132Z" fill="white"/>
<path d="M259.435 66.6667C257.391 66.6667 255.902 66.2222 254.968 65.3333C254.08 64.4 253.635 62.9111 253.635 60.8667V0H256.702V59.8C256.702 61.3111 256.968 62.3556 257.502 62.9333C258.08 63.4667 259.124 63.7333 260.635 63.7333H291.302V66.6667H259.435Z" fill="white"/>
<path d="M395.889 5.8C395.889 3.71111 396.333 2.22223 397.222 1.33334C398.156 0.444446 399.645 0 401.689 0H417.089C421.8 0 425.511 0.533334 428.222 1.6C430.978 2.66667 432.956 4.4 434.156 6.8C435.4 9.2 436.022 12.4667 436.022 16.6V22.3333C436.022 26.1111 435.445 29.1333 434.289 31.4C433.134 33.6667 431.289 35.3556 428.756 36.4667C426.222 37.5333 422.822 38.1556 418.556 38.3333L438.689 66.6667H435.156L413.689 36H416.022C420.245 36 423.578 35.5778 426.022 34.7333C428.467 33.8444 430.222 32.4222 431.289 30.4667C432.4 28.4667 432.956 25.7556 432.956 22.3333V16.6C432.956 13.1333 432.445 10.4222 431.422 8.46667C430.4 6.51111 428.734 5.11111 426.422 4.26667C424.111 3.37778 420.889 2.93334 416.756 2.93334H402.889C401.378 2.93334 400.334 3.2 399.756 3.73334C399.222 4.26667 398.956 5.31112 398.956 6.86667V66.6667H395.889V5.8Z" fill="white"/>
<path d="M483.053 2.93334H461.586V0H507.653V2.93334H486.119V66.6667H483.053V2.93334Z" fill="white"/>
<path d="M552.564 41.2C552.564 40.6222 552.519 40.1778 552.43 39.8667C552.386 39.5111 552.186 39 551.83 38.3333L529.497 0H532.83L554.097 36.4667L575.497 0H578.764L556.43 38.3333C556.075 39 555.852 39.4889 555.764 39.8C555.675 40.1111 555.63 40.5778 555.63 41.2V66.6667H552.564V41.2Z" fill="white"/>
</svg>
