<svg width="56" height="56" viewBox="0 0 56 56" fill="none" xmlns="http://www.w3.org/2000/svg">
<path d="M49.9629 50.0055L49.9971 49.9723L49.998 49.9733L45.7412 53.9459L37.5791 45.7701V47.5016C37.579 49.3294 36.4577 50.9602 34.7207 51.6559C34.1461 51.8877 33.5407 51.9996 32.9482 51.9996C31.7475 51.9996 30.5665 51.5431 29.6787 50.6803L17.2861 38.6393H7.47266C4.45277 38.6392 2 36.2524 2 33.3199V22.6793C2.00026 19.7445 4.45555 17.361 7.47266 17.361H9.2168L2 10.1324L6.2207 6.19202L49.9629 50.0055ZM29.6768 5.31702C31.0007 4.03033 32.9841 3.64612 34.7236 4.34436C36.4578 5.04271 37.5791 6.67054 37.5791 8.49573V29.3649L21.502 13.2614L29.6768 5.31702Z" fill="black"/>
</svg>
