<svg width="701" height="139" viewBox="0 0 701 139" fill="none" xmlns="http://www.w3.org/2000/svg">
<rect x="2" y="2" width="697" height="135" rx="13" stroke="white" stroke-width="4"/>
<path d="M417.525 36L417.526 34H417.525V36ZM419.592 36.6006L420.873 35.065L420.866 35.0591L420.859 35.0533L419.592 36.6006ZM420.858 38.8027L418.945 39.3845L418.963 39.4445L418.985 39.5033L420.858 38.8027ZM444.79 102.8V104.8H447.673L446.663 102.099L444.79 102.8ZM441.997 102.8V100.8H441.76L441.53 100.855L441.997 102.8ZM440.438 102.438L439.159 103.974L439.159 103.975L440.438 102.438ZM404.746 72.7197L406.026 71.1827L403.858 69.3778L402.872 72.0208L404.746 72.7197ZM393.526 102.8V104.8H394.915L395.4 103.499L393.526 102.8ZM390.193 102.8L388.32 102.1L387.311 104.8H390.193V102.8ZM402.216 70.6133L404.089 71.3131L404.586 69.9841L403.496 69.0763L402.216 70.6133ZM389.606 60.1143L388.049 58.859L386.814 60.3916L388.327 61.6512L389.606 60.1143ZM391.239 58.0889L392.496 56.5331L390.939 55.2751L389.682 56.8336L391.239 58.0889ZM403.266 67.8037L402.009 69.3595L404.168 71.1036L405.139 68.5036L403.266 67.8037ZM414.125 38.7354L415.999 39.4353L416.026 39.3608L416.048 39.2844L414.125 38.7354ZM415.325 36.667L414.044 35.1312L414.044 35.1312L415.325 36.667ZM417.525 39.2031L417.527 37.2031H417.525V39.2031ZM417.191 39.3359L415.404 38.4394L415.402 38.4423L417.191 39.3359ZM417.125 39.5361L418.999 40.2352L419.124 39.9004L419.125 39.5432L417.125 39.5361ZM405.812 69.8613L403.939 69.1623L403.435 70.5119L404.556 71.4171L405.812 69.8613ZM439.331 96.9395L438.074 98.4952L443.769 103.096L441.204 96.2387L439.331 96.9395ZM417.858 39.5361L415.897 39.929L415.929 40.0864L415.985 40.2368L417.858 39.5361ZM417.525 36L417.525 38C418.137 38 418.314 38.1393 418.325 38.1478L419.592 36.6006L420.859 35.0533C419.892 34.2612 418.691 34.0001 417.526 34L417.525 36ZM419.592 36.6006L418.31 38.1362C418.424 38.2307 418.691 38.5479 418.945 39.3845L420.858 38.8027L422.772 38.221C422.404 37.0114 421.826 35.8603 420.873 35.065L419.592 36.6006ZM420.858 38.8027L418.985 39.5033L442.917 103.5L444.79 102.8L446.663 102.099L422.732 38.1022L420.858 38.8027ZM444.79 102.8V100.8H441.997V102.8V104.8H444.79V102.8ZM441.997 102.8L441.53 100.855C441.552 100.85 441.583 100.847 441.621 100.856C441.664 100.865 441.698 100.884 441.718 100.9L440.438 102.438L439.159 103.975C440.144 104.794 441.377 105.005 442.464 104.745L441.997 102.8ZM440.438 102.438L441.718 100.901L406.026 71.1827L404.746 72.7197L403.466 74.2567L439.159 103.974L440.438 102.438ZM404.746 72.7197L402.872 72.0208L391.652 102.101L393.526 102.8L395.4 103.499L406.62 73.4187L404.746 72.7197ZM393.526 102.8V100.8H390.193V102.8V104.8H393.526V102.8ZM390.193 102.8L392.067 103.5L404.089 71.3131L402.216 70.6133L400.342 69.9135L388.32 102.1L390.193 102.8ZM402.216 70.6133L403.496 69.0763L390.886 58.5773L389.606 60.1143L388.327 61.6512L400.936 72.1503L402.216 70.6133ZM389.606 60.1143L391.163 61.3695L392.796 59.3441L391.239 58.0889L389.682 56.8336L388.049 58.859L389.606 60.1143ZM391.239 58.0889L389.982 59.6447L402.009 69.3595L403.266 67.8037L404.522 66.2479L392.496 56.5331L391.239 58.0889ZM403.266 67.8037L405.139 68.5036L415.999 39.4353L414.125 38.7354L412.251 38.0354L401.392 67.1038L403.266 67.8037ZM414.125 38.7354L416.048 39.2844C416.247 38.5882 416.481 38.307 416.606 38.2028L415.325 36.667L414.044 35.1312C413.103 35.9166 412.536 37.0144 412.202 38.1863L414.125 38.7354ZM415.325 36.667L416.606 38.2028C416.672 38.1476 416.898 38 417.525 38V36V34C416.286 34 415.045 34.2967 414.044 35.1312L415.325 36.667ZM417.525 39.2031V37.2031C417.216 37.2031 415.998 37.255 415.404 38.4394L417.191 39.3359L418.979 40.2325C418.737 40.7162 418.344 40.9769 418.046 41.0954C417.782 41.2001 417.577 41.2031 417.525 41.2031V39.2031ZM417.191 39.3359L415.402 38.4423C415.345 38.5572 415.127 38.9848 415.125 39.5291L417.125 39.5361L419.125 39.5432C419.124 39.69 419.107 39.809 419.091 39.8891C419.074 39.9714 419.055 40.0365 419.041 40.0805C419.012 40.1653 418.986 40.2181 418.981 40.2296L417.191 39.3359ZM417.125 39.5361L415.251 38.8371L403.939 69.1623L405.812 69.8613L407.686 70.5604L418.999 40.2352L417.125 39.5361ZM405.812 69.8613L404.556 71.4171L438.074 98.4952L439.331 96.9395L440.588 95.3837L407.069 68.3056L405.812 69.8613ZM439.331 96.9395L441.204 96.2387L419.732 38.8354L417.858 39.5361L415.985 40.2368L437.458 97.6402L439.331 96.9395ZM417.858 39.5361L419.819 39.1433C419.752 38.8077 419.588 38.3042 419.156 37.8718C418.675 37.3916 418.07 37.2036 417.527 37.2031L417.525 39.2031L417.524 41.2031C417.158 41.2028 416.697 41.0703 416.328 40.7011C416.006 40.3797 415.92 40.0426 415.897 39.929L417.858 39.5361Z" fill="url(#paint0_linear_56_89)"/>
<path d="M29.2666 99.9302H49.8653C53.9095 99.9302 57.0426 99.5743 59.2647 98.8625C61.4868 98.1507 63.0422 97.0162 63.9311 95.4591C64.8643 93.8575 65.331 91.6331 65.331 88.7858C65.331 86.2054 65.0421 84.1145 64.4644 82.5129C63.9311 80.9113 62.8867 79.4654 61.3312 78.1752C59.8202 76.8851 57.5759 75.5726 54.5983 74.238L40.7325 68.0985C37.1772 66.4969 34.5107 64.9621 32.733 63.494C30.9554 62.0258 29.711 60.3353 28.9999 58.4222C28.3333 56.4647 28 53.9066 28 50.7479C28 47.0109 28.5777 44.0969 29.7332 42.0059C30.8887 39.9149 32.7775 38.4246 35.3995 37.5348C38.0216 36.6005 41.688 36.1334 46.3988 36.1334H67.1975V39.0697H46.6655C42.5769 39.0697 39.4215 39.4478 37.1994 40.2041C34.9773 40.9159 33.3997 42.1171 32.4664 43.8077C31.5331 45.4983 31.0665 47.8562 31.0665 50.8814C31.0665 53.4618 31.3331 55.5527 31.8664 57.1543C32.4442 58.7559 33.4885 60.2018 34.9996 61.492C36.555 62.7821 38.8438 64.0946 41.8658 65.4292L55.5982 71.4352C59.1536 72.9923 61.8423 74.5272 63.6644 76.0398C65.4865 77.5079 66.7309 79.2207 67.3975 81.1782C68.0641 83.1357 68.3974 85.6938 68.3974 88.8525C68.3974 92.4561 67.8419 95.2589 66.7309 97.2609C65.6198 99.2629 63.7533 100.709 61.1312 101.599C58.5536 102.444 54.9316 102.866 50.2653 102.866H29.2666V99.9302Z" fill="#F8CD3F"/>
<path d="M95.76 36.1334V102.866H92.6936V36.1334H95.76Z" fill="#F8CD3F"/>
<path d="M167.744 103C166.944 103 166.233 102.8 165.611 102.399C165.033 101.954 164.433 101.198 163.811 100.13L127.947 39.737C127.813 39.559 127.68 39.4033 127.547 39.2699C127.458 39.1364 127.324 39.0697 127.147 39.0697C126.835 39.0697 126.68 39.3143 126.68 39.8037V102.866H123.613V39.8037C123.613 38.4246 123.858 37.4458 124.347 36.8675C124.88 36.2891 125.747 35.9999 126.947 35.9999C127.835 35.9999 128.569 36.2224 129.146 36.6673C129.769 37.1122 130.346 37.8685 130.88 38.9362L166.744 99.1962C167.011 99.6855 167.255 99.9302 167.477 99.9302C167.833 99.9302 168.011 99.6633 168.011 99.1294V36.1334H171.077V99.1294C171.077 100.553 170.81 101.554 170.277 102.132C169.788 102.711 168.944 103 167.744 103Z" fill="#F8CD3F"/>
<path d="M218.03 102.866C212.83 102.866 208.719 102.221 205.697 100.931C202.719 99.5966 200.564 97.4611 199.231 94.5248C197.942 91.5441 197.298 87.4734 197.298 82.3127V56.6872C197.298 51.482 197.964 47.4113 199.297 44.475C200.675 41.4943 202.897 39.3588 205.964 38.0687C209.03 36.7785 213.274 36.1334 218.696 36.1334H238.162V39.0697H218.83C214.074 39.0697 210.363 39.6258 207.697 40.738C205.075 41.8057 203.186 43.6075 202.031 46.1434C200.92 48.6347 200.364 52.1493 200.364 56.6872V82.3127C200.364 86.8505 200.942 90.3874 202.097 92.9232C203.253 95.4146 205.164 97.2164 207.83 98.3286C210.541 99.3964 214.319 99.9302 219.163 99.9302C223.963 99.9302 227.696 99.4631 230.362 98.5288C233.073 97.5501 235.006 95.993 236.162 93.8575C237.317 91.6776 237.895 88.6523 237.895 84.7818V73.0368C237.895 71.4797 237.628 70.4342 237.095 69.9003C236.562 69.3665 235.517 69.0995 233.962 69.0995H219.363V66.1633H235.162C237.251 66.1633 238.739 66.6082 239.628 67.4979C240.517 68.3877 240.961 69.8781 240.961 71.9691V84.7818C240.961 89.3197 240.295 92.901 238.962 95.5258C237.673 98.1062 235.54 99.9747 232.562 101.131C229.584 102.288 225.496 102.866 220.296 102.866H218.03Z" fill="#F8CD3F"/>
<path d="M286.471 102.866C281.582 102.866 277.671 102.244 274.738 100.998C271.849 99.7523 269.738 97.7725 268.405 95.0587C267.072 92.3449 266.405 88.7191 266.405 84.1812V36.1334H269.538V84.1812C269.538 88.2742 270.094 91.4551 271.205 93.724C272.316 95.9485 274.16 97.5501 276.738 98.5288C279.36 99.4631 283.026 99.9302 287.737 99.9302C292.404 99.9302 296.026 99.4631 298.603 98.5288C301.225 97.5501 303.092 95.9485 304.203 93.724C305.314 91.4551 305.869 88.2742 305.869 84.1812V36.1334H309.069V84.1812C309.069 88.7191 308.403 92.3449 307.069 95.0587C305.736 97.7725 303.603 99.7523 300.67 100.998C297.781 102.244 293.87 102.866 288.937 102.866H286.471Z" fill="#F8CD3F"/>
<path d="M342.771 102.866C340.726 102.866 339.238 102.422 338.304 101.532C337.415 100.598 336.971 99.1072 336.971 97.0607V36.1334H340.037V95.993C340.037 97.5056 340.304 98.5511 340.837 99.1294C341.415 99.6633 342.46 99.9302 343.971 99.9302H374.635V102.866H342.771Z" fill="#F8CD3F"/>
<path d="M469.217 41.9392C469.217 39.8482 469.661 38.3578 470.55 37.4681C471.483 36.5783 472.972 36.1334 475.016 36.1334H490.415C495.126 36.1334 498.837 36.6673 501.548 37.735C504.303 38.8027 506.281 40.5378 507.481 42.9402C508.725 45.3426 509.347 48.6125 509.347 52.7499V58.489C509.347 62.2705 508.77 65.2958 507.614 67.5647C506.459 69.8336 504.614 71.5242 502.081 72.6364C499.548 73.7041 496.148 74.327 491.882 74.5049L512.014 102.866H508.481L487.015 72.1693H489.349C493.571 72.1693 496.904 71.7466 499.348 70.9013C501.792 70.0116 503.548 68.5879 504.614 66.6304C505.725 64.6284 506.281 61.9146 506.281 58.489V52.7499C506.281 49.2798 505.77 46.566 504.748 44.6085C503.725 42.651 502.059 41.2496 499.748 40.4043C497.437 39.5145 494.215 39.0697 490.082 39.0697H476.216C474.705 39.0697 473.661 39.3366 473.083 39.8705C472.55 40.4043 472.283 41.4498 472.283 43.0069V102.866H469.217V41.9392Z" fill="#F8CD3F"/>
<path d="M537.576 36.1334V102.866H534.509V36.1334H537.576Z" fill="#F8CD3F"/>
<path d="M582.295 39.0697H560.829V36.1334H606.893V39.0697H585.361V102.866H582.295V39.0697Z" fill="#F8CD3F"/>
<path d="M646.802 77.3744C646.802 76.7961 646.757 76.3512 646.668 76.0398C646.624 75.6839 646.424 75.1722 646.068 74.5049L623.736 36.1334H627.07L648.335 72.6364L669.734 36.1334H673L650.668 74.5049C650.313 75.1722 650.09 75.6616 650.001 75.973C649.913 76.2845 649.868 76.7516 649.868 77.3744V102.866H646.802V77.3744Z" fill="#F8CD3F"/>
<path d="M29.2666 99.9302H49.8653C53.9095 99.9302 57.0426 99.5743 59.2647 98.8625C61.4868 98.1507 63.0422 97.0162 63.9311 95.4591C64.8643 93.8575 65.331 91.6331 65.331 88.7858C65.331 86.2054 65.0421 84.1145 64.4644 82.5129C63.9311 80.9113 62.8867 79.4654 61.3312 78.1752C59.8202 76.8851 57.5759 75.5726 54.5983 74.238L40.7325 68.0985C37.1772 66.4969 34.5107 64.9621 32.733 63.494C30.9554 62.0258 29.711 60.3353 28.9999 58.4222C28.3333 56.4647 28 53.9066 28 50.7479C28 47.0109 28.5777 44.0969 29.7332 42.0059C30.8887 39.9149 32.7775 38.4246 35.3995 37.5348C38.0216 36.6005 41.688 36.1334 46.3988 36.1334H67.1975V39.0697H46.6655C42.5769 39.0697 39.4215 39.4478 37.1994 40.2041C34.9773 40.9159 33.3997 42.1171 32.4664 43.8077C31.5331 45.4983 31.0665 47.8562 31.0665 50.8814C31.0665 53.4618 31.3331 55.5527 31.8664 57.1543C32.4442 58.7559 33.4885 60.2018 34.9996 61.492C36.555 62.7821 38.8438 64.0946 41.8658 65.4292L55.5982 71.4352C59.1536 72.9923 61.8423 74.5272 63.6644 76.0398C65.4865 77.5079 66.7309 79.2207 67.3975 81.1782C68.0641 83.1357 68.3974 85.6938 68.3974 88.8525C68.3974 92.4561 67.8419 95.2589 66.7309 97.2609C65.6198 99.2629 63.7533 100.709 61.1312 101.599C58.5536 102.444 54.9316 102.866 50.2653 102.866H29.2666V99.9302Z" stroke="white" stroke-width="4"/>
<path d="M95.76 36.1334V102.866H92.6936V36.1334H95.76Z" stroke="white" stroke-width="4"/>
<path d="M167.744 103C166.944 103 166.233 102.8 165.611 102.399C165.033 101.954 164.433 101.198 163.811 100.13L127.947 39.737C127.813 39.559 127.68 39.4033 127.547 39.2699C127.458 39.1364 127.324 39.0697 127.147 39.0697C126.835 39.0697 126.68 39.3143 126.68 39.8037V102.866H123.613V39.8037C123.613 38.4246 123.858 37.4458 124.347 36.8675C124.88 36.2891 125.747 35.9999 126.947 35.9999C127.835 35.9999 128.569 36.2224 129.146 36.6673C129.769 37.1122 130.346 37.8685 130.88 38.9362L166.744 99.1962C167.011 99.6855 167.255 99.9302 167.477 99.9302C167.833 99.9302 168.011 99.6633 168.011 99.1294V36.1334H171.077V99.1294C171.077 100.553 170.81 101.554 170.277 102.132C169.788 102.711 168.944 103 167.744 103Z" stroke="white" stroke-width="4"/>
<path d="M218.03 102.866C212.83 102.866 208.719 102.221 205.697 100.931C202.719 99.5966 200.564 97.4611 199.231 94.5248C197.942 91.5441 197.298 87.4734 197.298 82.3127V56.6872C197.298 51.482 197.964 47.4113 199.297 44.475C200.675 41.4943 202.897 39.3588 205.964 38.0687C209.03 36.7785 213.274 36.1334 218.696 36.1334H238.162V39.0697H218.83C214.074 39.0697 210.363 39.6258 207.697 40.738C205.075 41.8057 203.186 43.6075 202.031 46.1434C200.92 48.6347 200.364 52.1493 200.364 56.6872V82.3127C200.364 86.8505 200.942 90.3874 202.097 92.9232C203.253 95.4146 205.164 97.2164 207.83 98.3286C210.541 99.3964 214.319 99.9302 219.163 99.9302C223.963 99.9302 227.696 99.4631 230.362 98.5288C233.073 97.5501 235.006 95.993 236.162 93.8575C237.317 91.6776 237.895 88.6523 237.895 84.7818V73.0368C237.895 71.4797 237.628 70.4342 237.095 69.9003C236.562 69.3665 235.517 69.0995 233.962 69.0995H219.363V66.1633H235.162C237.251 66.1633 238.739 66.6082 239.628 67.4979C240.517 68.3877 240.961 69.8781 240.961 71.9691V84.7818C240.961 89.3197 240.295 92.901 238.962 95.5258C237.673 98.1062 235.54 99.9747 232.562 101.131C229.584 102.288 225.496 102.866 220.296 102.866H218.03Z" stroke="white" stroke-width="4"/>
<path d="M286.471 102.866C281.582 102.866 277.671 102.244 274.738 100.998C271.849 99.7523 269.738 97.7725 268.405 95.0587C267.072 92.3449 266.405 88.7191 266.405 84.1812V36.1334H269.538V84.1812C269.538 88.2742 270.094 91.4551 271.205 93.724C272.316 95.9485 274.16 97.5501 276.738 98.5288C279.36 99.4631 283.026 99.9302 287.737 99.9302C292.404 99.9302 296.026 99.4631 298.603 98.5288C301.225 97.5501 303.092 95.9485 304.203 93.724C305.314 91.4551 305.869 88.2742 305.869 84.1812V36.1334H309.069V84.1812C309.069 88.7191 308.403 92.3449 307.069 95.0587C305.736 97.7725 303.603 99.7523 300.67 100.998C297.781 102.244 293.87 102.866 288.937 102.866H286.471Z" stroke="white" stroke-width="4"/>
<path d="M342.771 102.866C340.726 102.866 339.238 102.422 338.304 101.532C337.415 100.598 336.971 99.1072 336.971 97.0607V36.1334H340.037V95.993C340.037 97.5056 340.304 98.5511 340.837 99.1294C341.415 99.6633 342.46 99.9302 343.971 99.9302H374.635V102.866H342.771Z" stroke="white" stroke-width="4"/>
<path d="M469.217 41.9392C469.217 39.8482 469.661 38.3578 470.55 37.4681C471.483 36.5783 472.972 36.1334 475.016 36.1334H490.415C495.126 36.1334 498.837 36.6673 501.548 37.735C504.303 38.8027 506.281 40.5378 507.481 42.9402C508.725 45.3426 509.347 48.6125 509.347 52.7499V58.489C509.347 62.2705 508.77 65.2958 507.614 67.5647C506.459 69.8336 504.614 71.5242 502.081 72.6364C499.548 73.7041 496.148 74.327 491.882 74.5049L512.014 102.866H508.481L487.015 72.1693H489.349C493.571 72.1693 496.904 71.7466 499.348 70.9013C501.792 70.0116 503.548 68.5879 504.614 66.6304C505.725 64.6284 506.281 61.9146 506.281 58.489V52.7499C506.281 49.2798 505.77 46.566 504.748 44.6085C503.725 42.651 502.059 41.2496 499.748 40.4043C497.437 39.5145 494.215 39.0697 490.082 39.0697H476.216C474.705 39.0697 473.661 39.3366 473.083 39.8705C472.55 40.4043 472.283 41.4498 472.283 43.0069V102.866H469.217V41.9392Z" stroke="white" stroke-width="4"/>
<path d="M537.576 36.1334V102.866H534.509V36.1334H537.576Z" stroke="white" stroke-width="4"/>
<path d="M582.295 39.0697H560.829V36.1334H606.893V39.0697H585.361V102.866H582.295V39.0697Z" stroke="white" stroke-width="4"/>
<path d="M646.802 77.3744C646.802 76.7961 646.757 76.3512 646.668 76.0398C646.624 75.6839 646.424 75.1722 646.068 74.5049L623.736 36.1334H627.07L648.335 72.6364L669.734 36.1334H673L650.668 74.5049C650.313 75.1722 650.09 75.6616 650.001 75.973C649.913 76.2845 649.868 76.7516 649.868 77.3744V102.866H646.802V77.3744Z" stroke="white" stroke-width="4"/>
<defs>
<linearGradient id="paint0_linear_56_89" x1="410.976" y1="66.029" x2="423.999" y2="28.501" gradientUnits="userSpaceOnUse">
<stop stop-color="white"/>
<stop offset="1" stop-color="white" stop-opacity="0.2"/>
</linearGradient>
</defs>
</svg>
