<svg width="651" height="72" viewBox="0 0 651 72" fill="none" xmlns="http://www.w3.org/2000/svg">
<path d="M391.549 2L391.549 -3.68041e-09L391.549 3.68041e-09L391.549 2ZM393.617 2.59961L394.897 1.06326L394.89 1.05745L394.883 1.05169L393.617 2.59961ZM394.883 4.7998L392.97 5.38213L392.988 5.44218L393.01 5.50096L394.883 4.7998ZM418.816 68.7334V70.7334H421.7L420.689 68.0322L418.816 68.7334ZM416.03 68.7334V66.7334H415.789L415.555 66.7906L416.03 68.7334ZM414.463 68.373L413.184 69.9107L413.184 69.9107L414.463 68.373ZM378.77 38.6836L380.049 37.146L377.882 35.3437L376.896 37.984L378.77 38.6836ZM367.549 68.7334V70.7334H368.937L369.423 69.433L367.549 68.7334ZM364.216 68.7334L362.343 68.0329L361.333 70.7334H364.216V68.7334ZM376.24 36.5791L378.113 37.2796L378.61 35.9496L377.519 35.0415L376.24 36.5791ZM363.629 26.0898L362.073 24.8339L360.836 26.3673L362.35 27.6274L363.629 26.0898ZM365.262 24.0664L366.518 22.51L364.962 21.2539L363.706 22.8104L365.262 24.0664ZM377.29 33.7725L376.034 35.3289L378.191 37.0703L379.163 34.4731L377.29 33.7725ZM388.15 4.7334L390.023 5.43399L390.051 5.35941L390.073 5.28284L388.15 4.7334ZM389.35 2.66602L388.07 1.12926L388.07 1.12957L389.35 2.66602ZM391.549 5.2002L391.549 3.2002L391.549 3.2002L391.549 5.2002ZM391.216 5.33301L389.428 4.43803L389.427 4.43857L391.216 5.33301ZM391.15 5.5332L393.024 6.23289L393.15 5.89446V5.5332H391.15ZM379.836 35.8281L377.963 35.1284L377.458 36.4791L378.58 37.3845L379.836 35.8281ZM413.358 62.8809L412.102 64.4372L417.798 69.0339L415.231 62.1795L413.358 62.8809ZM391.883 5.5332L389.922 5.92544L389.954 6.08356L390.01 6.23457L391.883 5.5332ZM391.549 2V4C392.163 4 392.34 4.13941 392.35 4.14752L393.617 2.59961L394.883 1.05169C393.915 0.259806 392.713 0 391.549 0V2ZM393.617 2.59961L392.336 4.13596C392.449 4.22998 392.716 4.54632 392.97 5.38213L394.883 4.7998L396.797 4.21748C396.429 3.00903 395.851 1.85816 394.897 1.06326L393.617 2.59961ZM394.883 4.7998L393.01 5.50096L416.943 69.4346L418.816 68.7334L420.689 68.0322L396.756 4.09865L394.883 4.7998ZM418.816 68.7334V66.7334H416.03V68.7334V70.7334H418.816V68.7334ZM416.03 68.7334L415.555 66.7906C415.576 66.7854 415.607 66.7827 415.645 66.7909C415.688 66.8 415.723 66.8191 415.742 66.8354L414.463 68.373L413.184 69.9107C414.174 70.7336 415.414 70.9427 416.505 70.6762L416.03 68.7334ZM414.463 68.373L415.742 66.8354L380.049 37.146L378.77 38.6836L377.491 40.2212L413.184 69.9107L414.463 68.373ZM378.77 38.6836L376.896 37.984L365.676 68.0338L367.549 68.7334L369.423 69.433L380.644 39.3832L378.77 38.6836ZM367.549 68.7334V66.7334H364.216V68.7334V70.7334H367.549V68.7334ZM364.216 68.7334L366.09 69.4339L378.113 37.2796L376.24 36.5791L374.366 35.8786L362.343 68.0329L364.216 68.7334ZM376.24 36.5791L377.519 35.0415L364.908 24.5522L363.629 26.0898L362.35 27.6274L374.961 38.1167L376.24 36.5791ZM363.629 26.0898L365.186 27.3458L366.819 25.3224L365.262 24.0664L363.706 22.8104L362.073 24.8339L363.629 26.0898ZM365.262 24.0664L364.006 25.6228L376.034 35.3289L377.29 33.7725L378.546 32.2161L366.518 22.51L365.262 24.0664ZM377.29 33.7725L379.163 34.4731L390.023 5.43399L388.15 4.7334L386.277 4.03281L375.416 33.0719L377.29 33.7725ZM388.15 4.7334L390.073 5.28284C390.272 4.58674 390.506 4.306 390.63 4.20246L389.35 2.66602L388.07 1.12957C387.127 1.91492 386.561 3.01339 386.227 4.18396L388.15 4.7334ZM389.35 2.66602L390.63 4.20277C390.696 4.14747 390.922 4.00004 391.549 4L391.549 2L391.549 3.68041e-09C390.311 7.51351e-05 389.07 0.296291 388.07 1.12926L389.35 2.66602ZM391.549 5.2002L391.549 3.2002C391.236 3.2003 390.02 3.25403 389.428 4.43803L391.216 5.33301L393.005 6.22798C392.764 6.70912 392.374 6.97145 392.073 7.0915C391.807 7.19724 391.602 7.20018 391.55 7.2002L391.549 5.2002ZM391.216 5.33301L389.427 4.43857C389.371 4.55054 389.15 4.98284 389.15 5.5332H391.15H393.15C393.15 5.682 393.132 5.80269 393.116 5.88409C393.099 5.96753 393.08 6.03355 393.065 6.07806C393.037 6.16361 393.011 6.2167 393.005 6.22745L391.216 5.33301ZM391.15 5.5332L389.276 4.83351L377.963 35.1284L379.836 35.8281L381.71 36.5278L393.024 6.23289L391.15 5.5332ZM379.836 35.8281L378.58 37.3845L412.102 64.4372L413.358 62.8809L414.614 61.3245L381.092 34.2717L379.836 35.8281ZM413.358 62.8809L415.231 62.1795L393.756 4.83184L391.883 5.5332L390.01 6.23457L411.485 63.5822L413.358 62.8809ZM391.883 5.5332L393.844 5.14096C393.777 4.80306 393.612 4.29849 393.177 3.86605C392.696 3.38667 392.091 3.2002 391.549 3.2002V5.2002V7.2002C391.186 7.2002 390.725 7.06911 390.355 6.70068C390.032 6.37919 389.945 6.04113 389.922 5.92544L391.883 5.5332Z" fill="url(#paint0_linear_29_111)"/>
<path d="M3.26667 66.0667H23.8667C27.9111 66.0667 31.0444 65.7111 33.2667 65C35.4889 64.2889 37.0444 63.1556 37.9333 61.6C38.8667 60 39.3333 57.7778 39.3333 54.9333C39.3333 52.3556 39.0444 50.2667 38.4667 48.6667C37.9333 47.0667 36.8889 45.6222 35.3333 44.3333C33.8222 43.0445 31.5778 41.7333 28.6 40.4L14.7333 34.2667C11.1778 32.6667 8.51111 31.1333 6.73333 29.6667C4.95556 28.2 3.71111 26.5111 3 24.6C2.33333 22.6445 2 20.0889 2 16.9333C2 13.2 2.57778 10.2889 3.73333 8.20001C4.88889 6.11112 6.77778 4.62223 9.4 3.73334C12.0222 2.80001 15.6889 2.33334 20.4 2.33334H41.2V5.26668H20.6667C16.5778 5.26668 13.4222 5.64446 11.2 6.40001C8.97778 7.11112 7.4 8.31112 6.46667 10C5.53333 11.6889 5.06667 14.0445 5.06667 17.0667C5.06667 19.6445 5.33333 21.7333 5.86667 23.3333C6.44444 24.9333 7.48889 26.3778 9 27.6667C10.5556 28.9556 12.8444 30.2667 15.8667 31.6L29.6 37.6C33.1556 39.1556 35.8444 40.6889 37.6667 42.2C39.4889 43.6667 40.7333 45.3778 41.4 47.3333C42.0667 49.2889 42.4 51.8445 42.4 55C42.4 58.6 41.8444 61.4 40.7333 63.4C39.6222 65.4 37.7556 66.8445 35.1333 67.7333C32.5556 68.5778 28.9333 69 24.2667 69H3.26667V66.0667Z" fill="#F8CD3F"/>
<path d="M69.7643 2.33334V69H66.6977V2.33334H69.7643Z" fill="#F8CD3F"/>
<path d="M141.753 69.1333C140.953 69.1333 140.242 68.9333 139.62 68.5333C139.042 68.0889 138.442 67.3333 137.82 66.2667L101.953 5.93334C101.82 5.75557 101.686 5.60001 101.553 5.46668C101.464 5.33334 101.331 5.26668 101.153 5.26668C100.842 5.26668 100.686 5.51112 100.686 6.00001V69H97.6195V6.00001C97.6195 4.62223 97.864 3.64446 98.3529 3.06668C98.8862 2.4889 99.7529 2.20001 100.953 2.20001C101.842 2.20001 102.575 2.42223 103.153 2.86668C103.775 3.31112 104.353 4.06668 104.886 5.13334L140.753 65.3333C141.02 65.8222 141.264 66.0667 141.486 66.0667C141.842 66.0667 142.02 65.8 142.02 65.2667V2.33334H145.086V65.2667C145.086 66.6889 144.82 67.6889 144.286 68.2667C143.797 68.8445 142.953 69.1333 141.753 69.1333Z" fill="#F8CD3F"/>
<path d="M192.042 69C186.842 69 182.731 68.3556 179.708 67.0667C176.731 65.7333 174.575 63.6 173.242 60.6667C171.953 57.6889 171.308 53.6222 171.308 48.4667V22.8667C171.308 17.6667 171.975 13.6 173.308 10.6667C174.686 7.6889 176.908 5.55556 179.975 4.26668C183.042 2.97779 187.286 2.33334 192.708 2.33334H212.175V5.26668H192.842C188.086 5.26668 184.375 5.82223 181.708 6.93334C179.086 8.00001 177.197 9.80001 176.042 12.3333C174.931 14.8222 174.375 18.3333 174.375 22.8667V48.4667C174.375 53 174.953 56.5333 176.108 59.0667C177.264 61.5556 179.175 63.3556 181.842 64.4667C184.553 65.5333 188.331 66.0667 193.175 66.0667C197.975 66.0667 201.708 65.6 204.375 64.6667C207.086 63.6889 209.019 62.1333 210.175 60C211.331 57.8222 211.908 54.8 211.908 50.9333V39.2C211.908 37.6445 211.642 36.6 211.108 36.0667C210.575 35.5333 209.531 35.2667 207.975 35.2667H193.375V32.3333H209.175C211.264 32.3333 212.753 32.7778 213.642 33.6667C214.531 34.5556 214.975 36.0445 214.975 38.1333V50.9333C214.975 55.4667 214.308 59.0445 212.975 61.6667C211.686 64.2445 209.553 66.1111 206.575 67.2667C203.597 68.4222 199.508 69 194.308 69H192.042Z" fill="#F8CD3F"/>
<path d="M260.487 69C255.598 69 251.687 68.3778 248.754 67.1333C245.865 65.8889 243.754 63.9111 242.42 61.2C241.087 58.4889 240.42 54.8667 240.42 50.3333V2.33334H243.554V50.3333C243.554 54.4222 244.109 57.6 245.22 59.8667C246.331 62.0889 248.176 63.6889 250.754 64.6667C253.376 65.6 257.043 66.0667 261.754 66.0667C266.42 66.0667 270.043 65.6 272.62 64.6667C275.243 63.6889 277.109 62.0889 278.22 59.8667C279.331 57.6 279.887 54.4222 279.887 50.3333V2.33334H283.087V50.3333C283.087 54.8667 282.42 58.4889 281.087 61.2C279.754 63.9111 277.62 65.8889 274.687 67.1333C271.798 68.3778 267.887 69 262.954 69H260.487Z" fill="#F8CD3F"/>
<path d="M316.791 69C314.746 69 313.257 68.5556 312.324 67.6667C311.435 66.7333 310.991 65.2445 310.991 63.2V2.33334H314.057V62.1333C314.057 63.6445 314.324 64.6889 314.857 65.2667C315.435 65.8 316.48 66.0667 317.991 66.0667H348.657V69H316.791Z" fill="#F8CD3F"/>
<path d="M443.245 8.13334C443.245 6.04446 443.689 4.55557 444.578 3.66668C445.511 2.77779 447 2.33334 449.045 2.33334H464.445C469.156 2.33334 472.867 2.86668 475.578 3.93335C478.333 5.00001 480.311 6.73334 481.511 9.13334C482.756 11.5333 483.378 14.8 483.378 18.9333V24.6667C483.378 28.4445 482.8 31.4667 481.645 33.7333C480.489 36 478.645 37.6889 476.111 38.8C473.578 39.8667 470.178 40.4889 465.911 40.6667L486.045 69H482.511L461.045 38.3333H463.378C467.6 38.3333 470.933 37.9111 473.378 37.0667C475.822 36.1778 477.578 34.7556 478.645 32.8C479.756 30.8 480.311 28.0889 480.311 24.6667V18.9333C480.311 15.4667 479.8 12.7556 478.778 10.8C477.756 8.84446 476.089 7.44446 473.778 6.60001C471.467 5.71112 468.245 5.26668 464.111 5.26668H450.245C448.733 5.26668 447.689 5.53334 447.111 6.06668C446.578 6.60001 446.311 7.64446 446.311 9.20001V69H443.245V8.13334Z" fill="#F8CD3F"/>
<path d="M511.608 2.33334V69H508.541V2.33334H511.608Z" fill="#F8CD3F"/>
<path d="M556.33 5.26668H534.863V2.33334H580.93V5.26668H559.397V69H556.33V5.26668Z" fill="#F8CD3F"/>
<path d="M620.841 43.5333C620.841 42.9556 620.796 42.5111 620.708 42.2C620.663 41.8445 620.463 41.3333 620.108 40.6667L597.774 2.33334H601.108L622.374 38.8L643.774 2.33334H647.041L624.708 40.6667C624.352 41.3333 624.13 41.8222 624.041 42.1333C623.952 42.4445 623.908 42.9111 623.908 43.5333V69H620.841V43.5333Z" fill="#F8CD3F"/>
<path d="M3.26667 66.0667H23.8667C27.9111 66.0667 31.0444 65.7111 33.2667 65C35.4889 64.2889 37.0444 63.1556 37.9333 61.6C38.8667 60 39.3333 57.7778 39.3333 54.9333C39.3333 52.3556 39.0444 50.2667 38.4667 48.6667C37.9333 47.0667 36.8889 45.6222 35.3333 44.3333C33.8222 43.0445 31.5778 41.7333 28.6 40.4L14.7333 34.2667C11.1778 32.6667 8.51111 31.1333 6.73333 29.6667C4.95556 28.2 3.71111 26.5111 3 24.6C2.33333 22.6445 2 20.0889 2 16.9333C2 13.2 2.57778 10.2889 3.73333 8.20001C4.88889 6.11112 6.77778 4.62223 9.4 3.73334C12.0222 2.80001 15.6889 2.33334 20.4 2.33334H41.2V5.26668H20.6667C16.5778 5.26668 13.4222 5.64446 11.2 6.40001C8.97778 7.11112 7.4 8.31112 6.46667 10C5.53333 11.6889 5.06667 14.0445 5.06667 17.0667C5.06667 19.6445 5.33333 21.7333 5.86667 23.3333C6.44444 24.9333 7.48889 26.3778 9 27.6667C10.5556 28.9556 12.8444 30.2667 15.8667 31.6L29.6 37.6C33.1556 39.1556 35.8444 40.6889 37.6667 42.2C39.4889 43.6667 40.7333 45.3778 41.4 47.3333C42.0667 49.2889 42.4 51.8445 42.4 55C42.4 58.6 41.8444 61.4 40.7333 63.4C39.6222 65.4 37.7556 66.8445 35.1333 67.7333C32.5556 68.5778 28.9333 69 24.2667 69H3.26667V66.0667Z" stroke="white" stroke-width="4"/>
<path d="M69.7643 2.33334V69H66.6977V2.33334H69.7643Z" stroke="white" stroke-width="4"/>
<path d="M141.753 69.1333C140.953 69.1333 140.242 68.9333 139.62 68.5333C139.042 68.0889 138.442 67.3333 137.82 66.2667L101.953 5.93334C101.82 5.75557 101.686 5.60001 101.553 5.46668C101.464 5.33334 101.331 5.26668 101.153 5.26668C100.842 5.26668 100.686 5.51112 100.686 6.00001V69H97.6195V6.00001C97.6195 4.62223 97.864 3.64446 98.3529 3.06668C98.8862 2.4889 99.7529 2.20001 100.953 2.20001C101.842 2.20001 102.575 2.42223 103.153 2.86668C103.775 3.31112 104.353 4.06668 104.886 5.13334L140.753 65.3333C141.02 65.8222 141.264 66.0667 141.486 66.0667C141.842 66.0667 142.02 65.8 142.02 65.2667V2.33334H145.086V65.2667C145.086 66.6889 144.82 67.6889 144.286 68.2667C143.797 68.8445 142.953 69.1333 141.753 69.1333Z" stroke="white" stroke-width="4"/>
<path d="M192.042 69C186.842 69 182.731 68.3556 179.708 67.0667C176.731 65.7333 174.575 63.6 173.242 60.6667C171.953 57.6889 171.308 53.6222 171.308 48.4667V22.8667C171.308 17.6667 171.975 13.6 173.308 10.6667C174.686 7.6889 176.908 5.55556 179.975 4.26668C183.042 2.97779 187.286 2.33334 192.708 2.33334H212.175V5.26668H192.842C188.086 5.26668 184.375 5.82223 181.708 6.93334C179.086 8.00001 177.197 9.80001 176.042 12.3333C174.931 14.8222 174.375 18.3333 174.375 22.8667V48.4667C174.375 53 174.953 56.5333 176.108 59.0667C177.264 61.5556 179.175 63.3556 181.842 64.4667C184.553 65.5333 188.331 66.0667 193.175 66.0667C197.975 66.0667 201.708 65.6 204.375 64.6667C207.086 63.6889 209.019 62.1333 210.175 60C211.331 57.8222 211.908 54.8 211.908 50.9333V39.2C211.908 37.6445 211.642 36.6 211.108 36.0667C210.575 35.5333 209.531 35.2667 207.975 35.2667H193.375V32.3333H209.175C211.264 32.3333 212.753 32.7778 213.642 33.6667C214.531 34.5556 214.975 36.0445 214.975 38.1333V50.9333C214.975 55.4667 214.308 59.0445 212.975 61.6667C211.686 64.2445 209.553 66.1111 206.575 67.2667C203.597 68.4222 199.508 69 194.308 69H192.042Z" stroke="white" stroke-width="4"/>
<path d="M260.487 69C255.598 69 251.687 68.3778 248.754 67.1333C245.865 65.8889 243.754 63.9111 242.42 61.2C241.087 58.4889 240.42 54.8667 240.42 50.3333V2.33334H243.554V50.3333C243.554 54.4222 244.109 57.6 245.22 59.8667C246.331 62.0889 248.176 63.6889 250.754 64.6667C253.376 65.6 257.043 66.0667 261.754 66.0667C266.42 66.0667 270.043 65.6 272.62 64.6667C275.243 63.6889 277.109 62.0889 278.22 59.8667C279.331 57.6 279.887 54.4222 279.887 50.3333V2.33334H283.087V50.3333C283.087 54.8667 282.42 58.4889 281.087 61.2C279.754 63.9111 277.62 65.8889 274.687 67.1333C271.798 68.3778 267.887 69 262.954 69H260.487Z" stroke="white" stroke-width="4"/>
<path d="M316.791 69C314.746 69 313.257 68.5556 312.324 67.6667C311.435 66.7333 310.991 65.2445 310.991 63.2V2.33334H314.057V62.1333C314.057 63.6445 314.324 64.6889 314.857 65.2667C315.435 65.8 316.48 66.0667 317.991 66.0667H348.657V69H316.791Z" stroke="white" stroke-width="4"/>
<path d="M443.245 8.13334C443.245 6.04446 443.689 4.55557 444.578 3.66668C445.511 2.77779 447 2.33334 449.045 2.33334H464.445C469.156 2.33334 472.867 2.86668 475.578 3.93335C478.333 5.00001 480.311 6.73334 481.511 9.13334C482.756 11.5333 483.378 14.8 483.378 18.9333V24.6667C483.378 28.4445 482.8 31.4667 481.645 33.7333C480.489 36 478.645 37.6889 476.111 38.8C473.578 39.8667 470.178 40.4889 465.911 40.6667L486.045 69H482.511L461.045 38.3333H463.378C467.6 38.3333 470.933 37.9111 473.378 37.0667C475.822 36.1778 477.578 34.7556 478.645 32.8C479.756 30.8 480.311 28.0889 480.311 24.6667V18.9333C480.311 15.4667 479.8 12.7556 478.778 10.8C477.756 8.84446 476.089 7.44446 473.778 6.60001C471.467 5.71112 468.245 5.26668 464.111 5.26668H450.245C448.733 5.26668 447.689 5.53334 447.111 6.06668C446.578 6.60001 446.311 7.64446 446.311 9.20001V69H443.245V8.13334Z" stroke="white" stroke-width="4"/>
<path d="M511.608 2.33334V69H508.541V2.33334H511.608Z" stroke="white" stroke-width="4"/>
<path d="M556.33 5.26668H534.863V2.33334H580.93V5.26668H559.397V69H556.33V5.26668Z" stroke="white" stroke-width="4"/>
<path d="M620.841 43.5333C620.841 42.9556 620.796 42.5111 620.708 42.2C620.663 41.8445 620.463 41.3333 620.108 40.6667L597.774 2.33334H601.108L622.374 38.8L643.774 2.33334H647.041L624.708 40.6667C624.352 41.3333 624.13 41.8222 624.041 42.1333C623.952 42.4445 623.908 42.9111 623.908 43.5333V69H620.841V43.5333Z" stroke="white" stroke-width="4"/>
<defs>
<linearGradient id="paint0_linear_29_111" x1="385" y1="32" x2="398" y2="-5.5" gradientUnits="userSpaceOnUse">
<stop stop-color="white"/>
<stop offset="1" stop-color="white" stop-opacity="0.2"/>
</linearGradient>
</defs>
</svg>
