<svg width="648" height="70" viewBox="0 0 648 70" fill="none" xmlns="http://www.w3.org/2000/svg">
<mask id="path-1-outside-1_29_111" maskUnits="userSpaceOnUse" x="360.629" y="0" width="59" height="69" fill="black">
<rect fill="white" x="360.629" width="59" height="69"/>
<path d="M390.549 1C391.438 1 392.128 1.19961 392.617 1.59961C393.15 2.04407 393.572 2.77767 393.883 3.7998L417.816 67.7334H414.549L414.527 67.6729C414.112 67.6871 413.686 67.5613 413.327 67.2627L377.77 37.6846L366.549 67.7334H363.216L375.24 35.5801L362.629 25.0898L364.262 23.0664L376.29 32.7725L387.15 3.7334C387.417 2.80007 387.817 2.11046 388.35 1.66602C388.883 1.22188 389.616 1.00006 390.549 1ZM390.549 4.2002C390.372 4.20025 390.261 4.24421 390.216 4.33301C390.172 4.4219 390.15 4.48876 390.15 4.5332L378.836 34.8281L412.358 61.8809L390.883 4.5332C390.839 4.31098 390.727 4.2002 390.549 4.2002Z"/>
</mask>
<path d="M390.549 1C391.438 1 392.128 1.19961 392.617 1.59961C393.15 2.04407 393.572 2.77767 393.883 3.7998L417.816 67.7334H414.549L414.527 67.6729C414.112 67.6871 413.686 67.5613 413.327 67.2627L377.77 37.6846L366.549 67.7334H363.216L375.24 35.5801L362.629 25.0898L364.262 23.0664L376.29 32.7725L387.15 3.7334C387.417 2.80007 387.817 2.11046 388.35 1.66602C388.883 1.22188 389.616 1.00006 390.549 1ZM390.549 4.2002C390.372 4.20025 390.261 4.24421 390.216 4.33301C390.172 4.4219 390.15 4.48876 390.15 4.5332L378.836 34.8281L412.358 61.8809L390.883 4.5332C390.839 4.31098 390.727 4.2002 390.549 4.2002Z" fill="url(#paint0_linear_29_111)"/>
<path d="M390.549 1L390.549 -1.84021e-09L390.549 1.84021e-09L390.549 1ZM392.617 1.59961L393.257 0.831403L393.25 0.825652L392.617 1.59961ZM393.883 3.7998L392.927 4.09096L392.936 4.12099L392.947 4.15038L393.883 3.7998ZM417.816 67.7334V68.7334H419.258L418.752 67.3828L417.816 67.7334ZM414.549 67.7334L413.612 68.0812L413.854 68.7334H414.549V67.7334ZM414.527 67.6729L415.464 67.325L415.214 66.6487L414.493 66.6734L414.527 67.6729ZM413.327 67.2627L412.687 68.0315L412.687 68.0315L413.327 67.2627ZM377.77 37.6846L378.41 36.9158L377.326 36.0146L376.833 37.3347L377.77 37.6846ZM366.549 67.7334V68.7334H367.243L367.486 68.0832L366.549 67.7334ZM363.216 67.7334L362.28 67.3831L361.775 68.7334H363.216V67.7334ZM375.24 35.5801L376.176 35.9303L376.425 35.2653L375.879 34.8113L375.24 35.5801ZM362.629 25.0898L361.851 24.4619L361.232 25.2286L361.99 25.8586L362.629 25.0898ZM364.262 23.0664L364.89 22.2882L364.112 21.6602L363.484 22.4384L364.262 23.0664ZM376.29 32.7725L375.662 33.5507L376.741 34.4214L377.226 33.1228L376.29 32.7725ZM387.15 3.7334L388.087 4.08369L388.1 4.0464L388.111 4.00812L387.15 3.7334ZM388.35 1.66602L387.71 0.897638L387.71 0.897795L388.35 1.66602ZM390.549 4.2002L390.549 3.2002L390.549 3.2002L390.549 4.2002ZM390.216 4.33301L389.322 3.88552L389.322 3.88579L390.216 4.33301ZM390.15 4.5332L391.087 4.88305L391.15 4.71383V4.5332H390.15ZM378.836 34.8281L377.9 34.4783L377.647 35.1536L378.208 35.6063L378.836 34.8281ZM412.358 61.8809L411.73 62.6591L414.578 64.9574L413.294 61.5302L412.358 61.8809ZM390.883 4.5332L389.903 4.72932L389.919 4.80838L389.947 4.88389L390.883 4.5332ZM390.549 1V2C391.301 2 391.734 2.16951 391.983 2.37357L392.617 1.59961L393.25 0.825652C392.522 0.229708 391.576 0 390.549 0V1ZM392.617 1.59961L391.976 2.36778C392.299 2.63702 392.644 3.162 392.927 4.09096L393.883 3.7998L394.84 3.50864C394.501 2.39335 394 1.45111 393.257 0.831435L392.617 1.59961ZM393.883 3.7998L392.947 4.15038L416.879 68.084L417.816 67.7334L418.752 67.3828L394.82 3.44923L393.883 3.7998ZM417.816 67.7334V66.7334H414.549V67.7334V68.7334H417.816V67.7334ZM414.549 67.7334L415.487 67.3856L415.464 67.325L414.527 67.6729L413.589 68.0207L413.612 68.0812L414.549 67.7334ZM414.527 67.6729L414.493 66.6734C414.306 66.6798 414.124 66.6252 413.966 66.4939L413.327 67.2627L412.687 68.0315C413.247 68.4974 413.918 68.6944 414.561 68.6723L414.527 67.6729ZM413.327 67.2627L413.966 66.4939L378.41 36.9158L377.77 37.6846L377.131 38.4533L412.687 68.0315L413.327 67.2627ZM377.77 37.6846L376.833 37.3347L365.613 67.3836L366.549 67.7334L367.486 68.0832L378.707 38.0344L377.77 37.6846ZM366.549 67.7334V66.7334H363.216V67.7334V68.7334H366.549V67.7334ZM363.216 67.7334L364.153 68.0837L376.176 35.9303L375.24 35.5801L374.303 35.2298L362.28 67.3831L363.216 67.7334ZM375.24 35.5801L375.879 34.8113L363.269 24.3211L362.629 25.0898L361.99 25.8586L374.6 36.3489L375.24 35.5801ZM362.629 25.0898L363.408 25.7178L365.04 23.6944L364.262 23.0664L363.484 22.4384L361.851 24.4619L362.629 25.0898ZM364.262 23.0664L363.634 23.8446L375.662 33.5507L376.29 32.7725L376.918 31.9943L364.89 22.2882L364.262 23.0664ZM376.29 32.7725L377.226 33.1228L388.087 4.08369L387.15 3.7334L386.213 3.3831L375.353 32.4222L376.29 32.7725ZM387.15 3.7334L388.111 4.00812C388.344 3.1934 388.661 2.70823 388.99 2.43424L388.35 1.66602L387.71 0.897795C386.972 1.51269 386.489 2.40673 386.188 3.45868L387.15 3.7334ZM388.35 1.66602L388.99 2.43439C389.29 2.18467 389.769 2.00005 390.549 2L390.549 1L390.549 1.84021e-09C389.464 6.58655e-05 388.477 0.259085 387.71 0.897638L388.35 1.66602ZM390.549 4.2002L390.549 3.2002C390.304 3.20028 389.64 3.24912 389.322 3.88552L390.216 4.33301L391.111 4.78049C391.001 4.99887 390.826 5.11344 390.703 5.16241C390.598 5.20424 390.531 5.2002 390.55 5.2002L390.549 4.2002ZM390.216 4.33301L389.322 3.88579C389.272 3.98622 389.15 4.2358 389.15 4.5332H390.15H391.15C391.15 4.60205 391.142 4.65614 391.135 4.68988C391.128 4.72465 391.12 4.75001 391.116 4.76391C391.107 4.79 391.102 4.79708 391.111 4.78023L390.216 4.33301ZM390.15 4.5332L389.213 4.18336L377.9 34.4783L378.836 34.8281L379.773 35.178L391.087 4.88305L390.15 4.5332ZM378.836 34.8281L378.208 35.6063L411.73 62.6591L412.358 61.8809L412.986 61.1027L379.464 34.0499L378.836 34.8281ZM412.358 61.8809L413.294 61.5302L391.82 4.18252L390.883 4.5332L389.947 4.88389L411.421 62.2315L412.358 61.8809ZM390.883 4.5332L391.864 4.33708C391.819 4.11257 391.717 3.81867 391.472 3.57471C391.203 3.30728 390.864 3.2002 390.549 3.2002V4.2002V5.2002C390.412 5.2002 390.218 5.1485 390.061 4.99202C389.927 4.85901 389.903 4.73161 389.903 4.72932L390.883 4.5332Z" fill="url(#paint1_linear_29_111)" mask="url(#path-1-outside-1_29_111)"/>
<mask id="path-3-outside-2_29_111" maskUnits="userSpaceOnUse" x="0" y="0.200012" width="648" height="69" fill="black">
<rect fill="white" y="0.200012" width="648" height="69"/>
<path d="M2.26667 65.0667H22.8667C26.9111 65.0667 30.0444 64.7111 32.2667 64C34.4889 63.2889 36.0444 62.1556 36.9333 60.6C37.8667 59 38.3333 56.7778 38.3333 53.9333C38.3333 51.3556 38.0444 49.2667 37.4667 47.6667C36.9333 46.0667 35.8889 44.6222 34.3333 43.3333C32.8222 42.0445 30.5778 40.7333 27.6 39.4L13.7333 33.2667C10.1778 31.6667 7.51111 30.1333 5.73333 28.6667C3.95556 27.2 2.71111 25.5111 2 23.6C1.33333 21.6445 1 19.0889 1 15.9333C1 12.2 1.57778 9.2889 2.73333 7.20001C3.88889 5.11112 5.77778 3.62223 8.4 2.73334C11.0222 1.80001 14.6889 1.33334 19.4 1.33334H40.2V4.26668H19.6667C15.5778 4.26668 12.4222 4.64446 10.2 5.40001C7.97778 6.11112 6.4 7.31112 5.46667 9.00001C4.53333 10.6889 4.06667 13.0445 4.06667 16.0667C4.06667 18.6445 4.33333 20.7333 4.86667 22.3333C5.44444 23.9333 6.48889 25.3778 8 26.6667C9.55556 27.9556 11.8444 29.2667 14.8667 30.6L28.6 36.6C32.1556 38.1556 34.8444 39.6889 36.6667 41.2C38.4889 42.6667 39.7333 44.3778 40.4 46.3333C41.0667 48.2889 41.4 50.8445 41.4 54C41.4 57.6 40.8444 60.4 39.7333 62.4C38.6222 64.4 36.7556 65.8445 34.1333 66.7333C31.5556 67.5778 27.9333 68 23.2667 68H2.26667V65.0667Z"/>
<path d="M68.7643 1.33334V68H65.6977V1.33334H68.7643Z"/>
<path d="M140.753 68.1333C139.953 68.1333 139.242 67.9333 138.62 67.5333C138.042 67.0889 137.442 66.3333 136.82 65.2667L100.953 4.93334C100.82 4.75557 100.686 4.60001 100.553 4.46668C100.464 4.33334 100.331 4.26668 100.153 4.26668C99.8418 4.26668 99.6862 4.51112 99.6862 5.00001V68H96.6195V5.00001C96.6195 3.62223 96.864 2.64446 97.3529 2.06668C97.8862 1.4889 98.7529 1.20001 99.9529 1.20001C100.842 1.20001 101.575 1.42223 102.153 1.86668C102.775 2.31112 103.353 3.06668 103.886 4.13334L139.753 64.3333C140.02 64.8222 140.264 65.0667 140.486 65.0667C140.842 65.0667 141.02 64.8 141.02 64.2667V1.33334H144.086V64.2667C144.086 65.6889 143.82 66.6889 143.286 67.2667C142.797 67.8445 141.953 68.1333 140.753 68.1333Z"/>
<path d="M191.042 68C185.842 68 181.731 67.3556 178.708 66.0667C175.731 64.7333 173.575 62.6 172.242 59.6667C170.953 56.6889 170.308 52.6222 170.308 47.4667V21.8667C170.308 16.6667 170.975 12.6 172.308 9.66668C173.686 6.6889 175.908 4.55556 178.975 3.26668C182.042 1.97779 186.286 1.33334 191.708 1.33334H211.175V4.26668H191.842C187.086 4.26668 183.375 4.82223 180.708 5.93334C178.086 7.00001 176.197 8.80001 175.042 11.3333C173.931 13.8222 173.375 17.3333 173.375 21.8667V47.4667C173.375 52 173.953 55.5333 175.108 58.0667C176.264 60.5556 178.175 62.3556 180.842 63.4667C183.553 64.5333 187.331 65.0667 192.175 65.0667C196.975 65.0667 200.708 64.6 203.375 63.6667C206.086 62.6889 208.019 61.1333 209.175 59C210.331 56.8222 210.908 53.8 210.908 49.9333V38.2C210.908 36.6445 210.642 35.6 210.108 35.0667C209.575 34.5333 208.531 34.2667 206.975 34.2667H192.375V31.3333H208.175C210.264 31.3333 211.753 31.7778 212.642 32.6667C213.531 33.5556 213.975 35.0445 213.975 37.1333V49.9333C213.975 54.4667 213.308 58.0445 211.975 60.6667C210.686 63.2445 208.553 65.1111 205.575 66.2667C202.597 67.4222 198.508 68 193.308 68H191.042Z"/>
<path d="M259.487 68C254.598 68 250.687 67.3778 247.754 66.1333C244.865 64.8889 242.754 62.9111 241.42 60.2C240.087 57.4889 239.42 53.8667 239.42 49.3333V1.33334H242.554V49.3333C242.554 53.4222 243.109 56.6 244.22 58.8667C245.331 61.0889 247.176 62.6889 249.754 63.6667C252.376 64.6 256.043 65.0667 260.754 65.0667C265.42 65.0667 269.043 64.6 271.62 63.6667C274.243 62.6889 276.109 61.0889 277.22 58.8667C278.331 56.6 278.887 53.4222 278.887 49.3333V1.33334H282.087V49.3333C282.087 53.8667 281.42 57.4889 280.087 60.2C278.754 62.9111 276.62 64.8889 273.687 66.1333C270.798 67.3778 266.887 68 261.954 68H259.487Z"/>
<path d="M315.791 68C313.746 68 312.257 67.5556 311.324 66.6667C310.435 65.7333 309.991 64.2445 309.991 62.2V1.33334H313.057V61.1333C313.057 62.6445 313.324 63.6889 313.857 64.2667C314.435 64.8 315.48 65.0667 316.991 65.0667H347.657V68H315.791Z"/>
<path d="M442.245 7.13334C442.245 5.04446 442.689 3.55557 443.578 2.66668C444.511 1.77779 446 1.33334 448.045 1.33334H463.445C468.156 1.33334 471.867 1.86668 474.578 2.93335C477.333 4.00001 479.311 5.73334 480.511 8.13334C481.756 10.5333 482.378 13.8 482.378 17.9333V23.6667C482.378 27.4445 481.8 30.4667 480.645 32.7333C479.489 35 477.645 36.6889 475.111 37.8C472.578 38.8667 469.178 39.4889 464.911 39.6667L485.045 68H481.511L460.045 37.3333H462.378C466.6 37.3333 469.933 36.9111 472.378 36.0667C474.822 35.1778 476.578 33.7556 477.645 31.8C478.756 29.8 479.311 27.0889 479.311 23.6667V17.9333C479.311 14.4667 478.8 11.7556 477.778 9.80001C476.756 7.84446 475.089 6.44446 472.778 5.60001C470.467 4.71112 467.245 4.26668 463.111 4.26668H449.245C447.733 4.26668 446.689 4.53334 446.111 5.06668C445.578 5.60001 445.311 6.64446 445.311 8.20001V68H442.245V7.13334Z"/>
<path d="M510.608 1.33334V68H507.541V1.33334H510.608Z"/>
<path d="M555.33 4.26668H533.863V1.33334H579.93V4.26668H558.397V68H555.33V4.26668Z"/>
<path d="M619.841 42.5333C619.841 41.9556 619.796 41.5111 619.708 41.2C619.663 40.8445 619.463 40.3333 619.108 39.6667L596.774 1.33334H600.108L621.374 37.8L642.774 1.33334H646.041L623.708 39.6667C623.352 40.3333 623.13 40.8222 623.041 41.1333C622.952 41.4445 622.908 41.9111 622.908 42.5333V68H619.841V42.5333Z"/>
</mask>
<path d="M2.26667 65.0667H22.8667C26.9111 65.0667 30.0444 64.7111 32.2667 64C34.4889 63.2889 36.0444 62.1556 36.9333 60.6C37.8667 59 38.3333 56.7778 38.3333 53.9333C38.3333 51.3556 38.0444 49.2667 37.4667 47.6667C36.9333 46.0667 35.8889 44.6222 34.3333 43.3333C32.8222 42.0445 30.5778 40.7333 27.6 39.4L13.7333 33.2667C10.1778 31.6667 7.51111 30.1333 5.73333 28.6667C3.95556 27.2 2.71111 25.5111 2 23.6C1.33333 21.6445 1 19.0889 1 15.9333C1 12.2 1.57778 9.2889 2.73333 7.20001C3.88889 5.11112 5.77778 3.62223 8.4 2.73334C11.0222 1.80001 14.6889 1.33334 19.4 1.33334H40.2V4.26668H19.6667C15.5778 4.26668 12.4222 4.64446 10.2 5.40001C7.97778 6.11112 6.4 7.31112 5.46667 9.00001C4.53333 10.6889 4.06667 13.0445 4.06667 16.0667C4.06667 18.6445 4.33333 20.7333 4.86667 22.3333C5.44444 23.9333 6.48889 25.3778 8 26.6667C9.55556 27.9556 11.8444 29.2667 14.8667 30.6L28.6 36.6C32.1556 38.1556 34.8444 39.6889 36.6667 41.2C38.4889 42.6667 39.7333 44.3778 40.4 46.3333C41.0667 48.2889 41.4 50.8445 41.4 54C41.4 57.6 40.8444 60.4 39.7333 62.4C38.6222 64.4 36.7556 65.8445 34.1333 66.7333C31.5556 67.5778 27.9333 68 23.2667 68H2.26667V65.0667Z" fill="#F8CD3F"/>
<path d="M68.7643 1.33334V68H65.6977V1.33334H68.7643Z" fill="#F8CD3F"/>
<path d="M140.753 68.1333C139.953 68.1333 139.242 67.9333 138.62 67.5333C138.042 67.0889 137.442 66.3333 136.82 65.2667L100.953 4.93334C100.82 4.75557 100.686 4.60001 100.553 4.46668C100.464 4.33334 100.331 4.26668 100.153 4.26668C99.8418 4.26668 99.6862 4.51112 99.6862 5.00001V68H96.6195V5.00001C96.6195 3.62223 96.864 2.64446 97.3529 2.06668C97.8862 1.4889 98.7529 1.20001 99.9529 1.20001C100.842 1.20001 101.575 1.42223 102.153 1.86668C102.775 2.31112 103.353 3.06668 103.886 4.13334L139.753 64.3333C140.02 64.8222 140.264 65.0667 140.486 65.0667C140.842 65.0667 141.02 64.8 141.02 64.2667V1.33334H144.086V64.2667C144.086 65.6889 143.82 66.6889 143.286 67.2667C142.797 67.8445 141.953 68.1333 140.753 68.1333Z" fill="#F8CD3F"/>
<path d="M191.042 68C185.842 68 181.731 67.3556 178.708 66.0667C175.731 64.7333 173.575 62.6 172.242 59.6667C170.953 56.6889 170.308 52.6222 170.308 47.4667V21.8667C170.308 16.6667 170.975 12.6 172.308 9.66668C173.686 6.6889 175.908 4.55556 178.975 3.26668C182.042 1.97779 186.286 1.33334 191.708 1.33334H211.175V4.26668H191.842C187.086 4.26668 183.375 4.82223 180.708 5.93334C178.086 7.00001 176.197 8.80001 175.042 11.3333C173.931 13.8222 173.375 17.3333 173.375 21.8667V47.4667C173.375 52 173.953 55.5333 175.108 58.0667C176.264 60.5556 178.175 62.3556 180.842 63.4667C183.553 64.5333 187.331 65.0667 192.175 65.0667C196.975 65.0667 200.708 64.6 203.375 63.6667C206.086 62.6889 208.019 61.1333 209.175 59C210.331 56.8222 210.908 53.8 210.908 49.9333V38.2C210.908 36.6445 210.642 35.6 210.108 35.0667C209.575 34.5333 208.531 34.2667 206.975 34.2667H192.375V31.3333H208.175C210.264 31.3333 211.753 31.7778 212.642 32.6667C213.531 33.5556 213.975 35.0445 213.975 37.1333V49.9333C213.975 54.4667 213.308 58.0445 211.975 60.6667C210.686 63.2445 208.553 65.1111 205.575 66.2667C202.597 67.4222 198.508 68 193.308 68H191.042Z" fill="#F8CD3F"/>
<path d="M259.487 68C254.598 68 250.687 67.3778 247.754 66.1333C244.865 64.8889 242.754 62.9111 241.42 60.2C240.087 57.4889 239.42 53.8667 239.42 49.3333V1.33334H242.554V49.3333C242.554 53.4222 243.109 56.6 244.22 58.8667C245.331 61.0889 247.176 62.6889 249.754 63.6667C252.376 64.6 256.043 65.0667 260.754 65.0667C265.42 65.0667 269.043 64.6 271.62 63.6667C274.243 62.6889 276.109 61.0889 277.22 58.8667C278.331 56.6 278.887 53.4222 278.887 49.3333V1.33334H282.087V49.3333C282.087 53.8667 281.42 57.4889 280.087 60.2C278.754 62.9111 276.62 64.8889 273.687 66.1333C270.798 67.3778 266.887 68 261.954 68H259.487Z" fill="#F8CD3F"/>
<path d="M315.791 68C313.746 68 312.257 67.5556 311.324 66.6667C310.435 65.7333 309.991 64.2445 309.991 62.2V1.33334H313.057V61.1333C313.057 62.6445 313.324 63.6889 313.857 64.2667C314.435 64.8 315.48 65.0667 316.991 65.0667H347.657V68H315.791Z" fill="#F8CD3F"/>
<path d="M442.245 7.13334C442.245 5.04446 442.689 3.55557 443.578 2.66668C444.511 1.77779 446 1.33334 448.045 1.33334H463.445C468.156 1.33334 471.867 1.86668 474.578 2.93335C477.333 4.00001 479.311 5.73334 480.511 8.13334C481.756 10.5333 482.378 13.8 482.378 17.9333V23.6667C482.378 27.4445 481.8 30.4667 480.645 32.7333C479.489 35 477.645 36.6889 475.111 37.8C472.578 38.8667 469.178 39.4889 464.911 39.6667L485.045 68H481.511L460.045 37.3333H462.378C466.6 37.3333 469.933 36.9111 472.378 36.0667C474.822 35.1778 476.578 33.7556 477.645 31.8C478.756 29.8 479.311 27.0889 479.311 23.6667V17.9333C479.311 14.4667 478.8 11.7556 477.778 9.80001C476.756 7.84446 475.089 6.44446 472.778 5.60001C470.467 4.71112 467.245 4.26668 463.111 4.26668H449.245C447.733 4.26668 446.689 4.53334 446.111 5.06668C445.578 5.60001 445.311 6.64446 445.311 8.20001V68H442.245V7.13334Z" fill="#F8CD3F"/>
<path d="M510.608 1.33334V68H507.541V1.33334H510.608Z" fill="#F8CD3F"/>
<path d="M555.33 4.26668H533.863V1.33334H579.93V4.26668H558.397V68H555.33V4.26668Z" fill="#F8CD3F"/>
<path d="M619.841 42.5333C619.841 41.9556 619.796 41.5111 619.708 41.2C619.663 40.8445 619.463 40.3333 619.108 39.6667L596.774 1.33334H600.108L621.374 37.8L642.774 1.33334H646.041L623.708 39.6667C623.352 40.3333 623.13 40.8222 623.041 41.1333C622.952 41.4445 622.908 41.9111 622.908 42.5333V68H619.841V42.5333Z" fill="#F8CD3F"/>
<path d="M2.26667 65.0667H22.8667C26.9111 65.0667 30.0444 64.7111 32.2667 64C34.4889 63.2889 36.0444 62.1556 36.9333 60.6C37.8667 59 38.3333 56.7778 38.3333 53.9333C38.3333 51.3556 38.0444 49.2667 37.4667 47.6667C36.9333 46.0667 35.8889 44.6222 34.3333 43.3333C32.8222 42.0445 30.5778 40.7333 27.6 39.4L13.7333 33.2667C10.1778 31.6667 7.51111 30.1333 5.73333 28.6667C3.95556 27.2 2.71111 25.5111 2 23.6C1.33333 21.6445 1 19.0889 1 15.9333C1 12.2 1.57778 9.2889 2.73333 7.20001C3.88889 5.11112 5.77778 3.62223 8.4 2.73334C11.0222 1.80001 14.6889 1.33334 19.4 1.33334H40.2V4.26668H19.6667C15.5778 4.26668 12.4222 4.64446 10.2 5.40001C7.97778 6.11112 6.4 7.31112 5.46667 9.00001C4.53333 10.6889 4.06667 13.0445 4.06667 16.0667C4.06667 18.6445 4.33333 20.7333 4.86667 22.3333C5.44444 23.9333 6.48889 25.3778 8 26.6667C9.55556 27.9556 11.8444 29.2667 14.8667 30.6L28.6 36.6C32.1556 38.1556 34.8444 39.6889 36.6667 41.2C38.4889 42.6667 39.7333 44.3778 40.4 46.3333C41.0667 48.2889 41.4 50.8445 41.4 54C41.4 57.6 40.8444 60.4 39.7333 62.4C38.6222 64.4 36.7556 65.8445 34.1333 66.7333C31.5556 67.5778 27.9333 68 23.2667 68H2.26667V65.0667Z" stroke="#F8CD3F" stroke-width="2" mask="url(#path-3-outside-2_29_111)"/>
<path d="M68.7643 1.33334V68H65.6977V1.33334H68.7643Z" stroke="#F8CD3F" stroke-width="2" mask="url(#path-3-outside-2_29_111)"/>
<path d="M140.753 68.1333C139.953 68.1333 139.242 67.9333 138.62 67.5333C138.042 67.0889 137.442 66.3333 136.82 65.2667L100.953 4.93334C100.82 4.75557 100.686 4.60001 100.553 4.46668C100.464 4.33334 100.331 4.26668 100.153 4.26668C99.8418 4.26668 99.6862 4.51112 99.6862 5.00001V68H96.6195V5.00001C96.6195 3.62223 96.864 2.64446 97.3529 2.06668C97.8862 1.4889 98.7529 1.20001 99.9529 1.20001C100.842 1.20001 101.575 1.42223 102.153 1.86668C102.775 2.31112 103.353 3.06668 103.886 4.13334L139.753 64.3333C140.02 64.8222 140.264 65.0667 140.486 65.0667C140.842 65.0667 141.02 64.8 141.02 64.2667V1.33334H144.086V64.2667C144.086 65.6889 143.82 66.6889 143.286 67.2667C142.797 67.8445 141.953 68.1333 140.753 68.1333Z" stroke="#F8CD3F" stroke-width="2" mask="url(#path-3-outside-2_29_111)"/>
<path d="M191.042 68C185.842 68 181.731 67.3556 178.708 66.0667C175.731 64.7333 173.575 62.6 172.242 59.6667C170.953 56.6889 170.308 52.6222 170.308 47.4667V21.8667C170.308 16.6667 170.975 12.6 172.308 9.66668C173.686 6.6889 175.908 4.55556 178.975 3.26668C182.042 1.97779 186.286 1.33334 191.708 1.33334H211.175V4.26668H191.842C187.086 4.26668 183.375 4.82223 180.708 5.93334C178.086 7.00001 176.197 8.80001 175.042 11.3333C173.931 13.8222 173.375 17.3333 173.375 21.8667V47.4667C173.375 52 173.953 55.5333 175.108 58.0667C176.264 60.5556 178.175 62.3556 180.842 63.4667C183.553 64.5333 187.331 65.0667 192.175 65.0667C196.975 65.0667 200.708 64.6 203.375 63.6667C206.086 62.6889 208.019 61.1333 209.175 59C210.331 56.8222 210.908 53.8 210.908 49.9333V38.2C210.908 36.6445 210.642 35.6 210.108 35.0667C209.575 34.5333 208.531 34.2667 206.975 34.2667H192.375V31.3333H208.175C210.264 31.3333 211.753 31.7778 212.642 32.6667C213.531 33.5556 213.975 35.0445 213.975 37.1333V49.9333C213.975 54.4667 213.308 58.0445 211.975 60.6667C210.686 63.2445 208.553 65.1111 205.575 66.2667C202.597 67.4222 198.508 68 193.308 68H191.042Z" stroke="#F8CD3F" stroke-width="2" mask="url(#path-3-outside-2_29_111)"/>
<path d="M259.487 68C254.598 68 250.687 67.3778 247.754 66.1333C244.865 64.8889 242.754 62.9111 241.42 60.2C240.087 57.4889 239.42 53.8667 239.42 49.3333V1.33334H242.554V49.3333C242.554 53.4222 243.109 56.6 244.22 58.8667C245.331 61.0889 247.176 62.6889 249.754 63.6667C252.376 64.6 256.043 65.0667 260.754 65.0667C265.42 65.0667 269.043 64.6 271.62 63.6667C274.243 62.6889 276.109 61.0889 277.22 58.8667C278.331 56.6 278.887 53.4222 278.887 49.3333V1.33334H282.087V49.3333C282.087 53.8667 281.42 57.4889 280.087 60.2C278.754 62.9111 276.62 64.8889 273.687 66.1333C270.798 67.3778 266.887 68 261.954 68H259.487Z" stroke="#F8CD3F" stroke-width="2" mask="url(#path-3-outside-2_29_111)"/>
<path d="M315.791 68C313.746 68 312.257 67.5556 311.324 66.6667C310.435 65.7333 309.991 64.2445 309.991 62.2V1.33334H313.057V61.1333C313.057 62.6445 313.324 63.6889 313.857 64.2667C314.435 64.8 315.48 65.0667 316.991 65.0667H347.657V68H315.791Z" stroke="#F8CD3F" stroke-width="2" mask="url(#path-3-outside-2_29_111)"/>
<path d="M442.245 7.13334C442.245 5.04446 442.689 3.55557 443.578 2.66668C444.511 1.77779 446 1.33334 448.045 1.33334H463.445C468.156 1.33334 471.867 1.86668 474.578 2.93335C477.333 4.00001 479.311 5.73334 480.511 8.13334C481.756 10.5333 482.378 13.8 482.378 17.9333V23.6667C482.378 27.4445 481.8 30.4667 480.645 32.7333C479.489 35 477.645 36.6889 475.111 37.8C472.578 38.8667 469.178 39.4889 464.911 39.6667L485.045 68H481.511L460.045 37.3333H462.378C466.6 37.3333 469.933 36.9111 472.378 36.0667C474.822 35.1778 476.578 33.7556 477.645 31.8C478.756 29.8 479.311 27.0889 479.311 23.6667V17.9333C479.311 14.4667 478.8 11.7556 477.778 9.80001C476.756 7.84446 475.089 6.44446 472.778 5.60001C470.467 4.71112 467.245 4.26668 463.111 4.26668H449.245C447.733 4.26668 446.689 4.53334 446.111 5.06668C445.578 5.60001 445.311 6.64446 445.311 8.20001V68H442.245V7.13334Z" stroke="#F8CD3F" stroke-width="2" mask="url(#path-3-outside-2_29_111)"/>
<path d="M510.608 1.33334V68H507.541V1.33334H510.608Z" stroke="#F8CD3F" stroke-width="2" mask="url(#path-3-outside-2_29_111)"/>
<path d="M555.33 4.26668H533.863V1.33334H579.93V4.26668H558.397V68H555.33V4.26668Z" stroke="#F8CD3F" stroke-width="2" mask="url(#path-3-outside-2_29_111)"/>
<path d="M619.841 42.5333C619.841 41.9556 619.796 41.5111 619.708 41.2C619.663 40.8445 619.463 40.3333 619.108 39.6667L596.774 1.33334H600.108L621.374 37.8L642.774 1.33334H646.041L623.708 39.6667C623.352 40.3333 623.13 40.8222 623.041 41.1333C622.952 41.4445 622.908 41.9111 622.908 42.5333V68H619.841V42.5333Z" stroke="#F8CD3F" stroke-width="2" mask="url(#path-3-outside-2_29_111)"/>
<defs>
<linearGradient id="paint0_linear_29_111" x1="393.619" y1="40.1092" x2="416.607" y2="17.4791" gradientUnits="userSpaceOnUse">
<stop stop-color="#F8CD3F"/>
<stop offset="1" stop-color="#E66D3A"/>
</linearGradient>
<linearGradient id="paint1_linear_29_111" x1="393.619" y1="40.1092" x2="416.607" y2="17.4791" gradientUnits="userSpaceOnUse">
<stop stop-color="#F8CD3F"/>
<stop offset="1" stop-color="#E66D3A"/>
</linearGradient>
</defs>
</svg>
