<svg width="56" height="56" viewBox="0 0 56 56" fill="none" xmlns="http://www.w3.org/2000/svg">
<path d="M50.9629 48.8135L50.9971 48.7803L50.998 48.7812L46.7412 52.7539L37.5518 43.5498C36.8726 43.9958 36.0631 44.2246 35.167 44.2246H22.167V42.1406C22.167 44.1765 22.1661 44.2236 22.165 44.2246H22.1484C22.1419 44.2246 22.1347 44.2238 22.127 44.2236C22.1114 44.2234 22.0934 44.2233 22.0732 44.2227C22.0328 44.2213 21.9825 44.219 21.9248 44.2148C21.8102 44.2067 21.6599 44.1912 21.4854 44.1621C21.1458 44.1055 20.6611 43.9882 20.1514 43.7334C19.6336 43.4744 19.0526 43.0533 18.6055 42.3828C18.1496 41.699 17.917 40.8807 17.917 39.9746V23.8818L3 8.94043L7.2207 5L50.9629 48.8135ZM22.083 39.9746C22.083 39.9966 22.085 40.0157 22.0859 40.0322C22.1111 40.0395 22.14 40.0466 22.1709 40.0518C22.1909 40.0551 22.2062 40.0568 22.2148 40.0576H34.0654L22.083 28.0547V39.9746ZM5.52734 16.835C6.34094 16.0214 7.65906 16.0214 8.47266 16.835L12.8066 21.168C13.6201 21.9816 13.6202 23.3007 12.8066 24.1143L9.94531 26.9736L12.8066 29.835C13.6198 30.6485 13.6198 31.9668 12.8066 32.7803L8.47266 37.1143C7.65915 37.9274 6.34085 37.9274 5.52734 37.1143C4.71375 36.3007 4.71375 34.9816 5.52734 34.168L8.3877 31.3076L5.52734 28.4473C4.71375 27.6337 4.71375 26.3146 5.52734 25.501L8.38672 22.6406L5.52734 19.7803C4.71375 18.9667 4.71375 17.6486 5.52734 16.835ZM48.8604 16.835C49.6739 16.0214 50.993 16.0214 51.8066 16.835C52.6198 17.6485 52.6198 18.9668 51.8066 19.7803L48.9453 22.6406L51.8066 25.501C52.6202 26.3145 52.6201 27.6337 51.8066 28.4473L48.9453 31.3076L51.8066 34.168C52.6201 34.9816 52.6202 36.3007 51.8066 37.1143C50.9931 37.9278 49.674 37.9277 48.8604 37.1143L44.5273 32.7803C43.7138 31.9667 43.7138 30.6486 44.5273 29.835L47.3867 26.9736L44.5273 24.1143C43.7138 23.3007 43.7138 21.9816 44.5273 21.168L48.8604 16.835ZM35.167 11.3262C35.1671 9.81047 35.1681 9.729 35.1689 9.72461H35.2061C35.2217 9.72486 35.2405 9.72491 35.2607 9.72559C35.3011 9.72694 35.3507 9.72929 35.4082 9.7334C35.5228 9.74158 35.673 9.75702 35.8477 9.78613C36.1872 9.84272 36.6719 9.95998 37.1816 10.2148C37.6996 10.4738 38.2813 10.8956 38.7285 11.5664C39.1842 12.2502 39.417 13.0686 39.417 13.9746V29.0117L35.25 24.8379V13.9746C35.25 13.9519 35.2481 13.932 35.2471 13.915C35.2221 13.9079 35.1936 13.9016 35.1631 13.8965C35.1435 13.8932 35.1279 13.8915 35.1191 13.8906H24.3193L20.4746 10.0391C20.9899 9.83189 21.5581 9.72461 22.167 9.72461H35.167V11.3262Z" fill="#9FDFFF"/>
</svg>
