<svg width="56" height="56" viewBox="0 0 56 56" fill="none" xmlns="http://www.w3.org/2000/svg">
<path d="M50.9629 48.0059L50.9971 47.9727L50.998 47.9736L46.7412 51.9463L37.6973 42.8867C37.4442 43.2739 37.0942 43.6686 36.6104 43.9912C35.9383 44.4392 35.1353 44.6669 34.25 44.667H21.75V42.584C21.75 44.6258 21.7491 44.6662 21.748 44.667H21.7109C21.6955 44.6667 21.677 44.6657 21.6572 44.665C21.6176 44.6637 21.5688 44.6612 21.5127 44.6572C21.4004 44.6492 21.2527 44.6349 21.082 44.6064C20.7504 44.5512 20.2764 44.4359 19.7773 44.1865C19.2699 43.9328 18.6981 43.5192 18.2588 42.8604C17.8108 42.1883 17.584 41.3852 17.584 40.5V22.7402L3 8.13281L7.2207 4.19238L50.9629 48.0059ZM21.75 40.4912C21.7556 40.4924 21.7617 40.4951 21.7676 40.4961C21.779 40.498 21.7889 40.4992 21.7959 40.5H34.2422C34.2432 40.4946 34.2451 40.489 34.2461 40.4834C34.2481 40.4715 34.2492 40.4613 34.25 40.4541V39.4336L21.75 26.9131V40.4912ZM5.69434 18.1943C6.50793 17.3807 7.82606 17.3807 8.63965 18.1943L12.8066 22.3604C13.6199 23.174 13.6201 24.4932 12.8066 25.3066L10.1123 28L12.8066 30.6943C13.6197 31.5079 13.6199 32.8262 12.8066 33.6396L8.63965 37.8066C7.82621 38.6199 6.50791 38.6197 5.69434 37.8066C4.88074 36.993 4.88074 35.6739 5.69434 34.8604L8.3877 32.167L5.69434 29.4736C4.88074 28.66 4.88074 27.3409 5.69434 26.5273L8.38672 23.833L5.69434 21.1396C4.88074 20.3261 4.88074 19.0079 5.69434 18.1943ZM47.3604 18.1943C48.1739 17.3807 49.493 17.3807 50.3066 18.1943C51.1197 19.0079 51.1199 20.3262 50.3066 21.1396L47.6123 23.833L50.3066 26.5273C51.1199 27.341 51.1201 28.6601 50.3066 29.4736L47.6123 32.167L50.3066 34.8604C51.1199 35.674 51.1201 36.9932 50.3066 37.8066C50.072 38.0412 49.7945 38.2054 49.5 38.3047L42.6982 31.4912C42.7979 31.2003 42.9622 30.9265 43.1943 30.6943L45.8867 28L43.1943 25.3066C42.3807 24.493 42.3807 23.1739 43.1943 22.3604L47.3604 18.1943ZM34.25 12.9043C34.2501 11.4508 34.2511 11.3421 34.252 11.334H34.29C34.3053 11.3342 34.3232 11.3343 34.3428 11.335C34.3825 11.3363 34.4319 11.3387 34.4883 11.3428C34.6005 11.3508 34.7475 11.3661 34.918 11.3945C35.2497 11.4498 35.7244 11.5648 36.2236 11.8145C36.7311 12.0683 37.302 12.4818 37.7412 13.1406C38.189 13.8126 38.4169 14.6149 38.417 15.5V27.2031L34.25 23.0293V15.5078C34.2447 15.5068 34.2389 15.5058 34.2334 15.5049C34.2179 15.5023 34.2054 15.5007 34.1982 15.5H26.7324L22.5732 11.334H34.25V12.9043Z" fill="#9FDFFF"/>
</svg>
