<svg width="100" height="100" viewBox="0 0 100 100" fill="none" xmlns="http://www.w3.org/2000/svg">
<path fill-rule="evenodd" clip-rule="evenodd" d="M7.12958 60.5896C2.82488 65.9607 1.65298 73.4996 4.72338 80.1676C5.09838 80.9801 5.47729 81.8043 5.85228 82.6168C7.94608 87.1637 11.7664 90.6871 16.4693 92.398C21.1724 94.1089 26.3677 93.8707 30.8913 91.73L33.196 90.6441C36.2976 89.1793 37.6374 85.4918 36.2038 82.3785C33.5124 76.5308 27.3366 63.1125 24.6218 57.2145C23.9265 55.6989 22.6491 54.527 21.0827 53.9567C19.5163 53.3864 17.7858 53.4645 16.2741 54.1794L13.7429 55.3747C13.6218 55.4294 13.4968 55.4919 13.3796 55.5544V46.7341V46.5075C13.5085 27.5345 29.8876 12.2495 49.9496 12.2495C70.0866 12.2495 86.5196 27.6515 86.5196 46.7335V55.6358C86.3438 55.546 86.1641 55.46 85.9805 55.3741L83.4532 54.1788C81.9454 53.4639 80.211 53.3858 78.6446 53.9561C77.0782 54.5264 75.8048 55.6983 75.1016 57.2139C72.3907 63.1123 66.2149 76.5299 63.5236 82.3779C62.09 85.4912 63.4299 89.1787 66.5314 90.6435L68.8361 91.7294C73.3634 93.87 78.5549 94.1083 83.2581 92.3974C87.9612 90.6865 91.7854 87.163 93.8791 82.6162L95.008 80.167C98.0353 73.5889 96.9299 66.159 92.7697 60.804V46.734C92.7697 24.3 73.6287 6 49.9497 6C26.3637 6 7.27774 24.16 7.12974 46.473L7.12958 60.5896Z" fill="white"/>
</svg>
