<svg width="56" height="56" viewBox="0 0 56 56" fill="none" xmlns="http://www.w3.org/2000/svg">
<path d="M50.96 48.7852L50.9951 48.751L50.999 48.7549L46.7422 52.7275L41.4258 47.4023C40.3398 48.059 39.0875 48.4414 37.7646 48.4414C33.7615 48.4414 30.3898 44.9685 30.3896 40.8447C30.3896 39.5556 30.7188 38.3296 31.2939 37.2539L22.0586 28.0039L17.748 28.6904V45.1855C17.748 49.3093 14.3771 52.7822 10.374 52.7822C6.371 52.7821 3.00008 49.3092 3 45.1855C3 41.0618 6.37096 37.589 10.374 37.5889C11.4274 37.5889 12.4808 37.8061 13.5342 38.457V19.4648L3 8.91406L7.2207 4.97461L50.96 48.7852ZM42.6104 9.37305C43.2424 9.37306 43.8748 9.59058 44.5068 9.80762C44.928 10.2417 45.1387 10.893 45.1387 11.5439V34.7178L40.9248 30.4971V25L36.1885 25.7539L22.9453 12.4883L42.6104 9.37305Z" fill="black"/>
</svg>
