<svg width="56" height="56" viewBox="0 0 56 56" fill="none" xmlns="http://www.w3.org/2000/svg">
<path d="M43.5066 10.8073C42.8745 10.5903 42.2424 10.3732 41.6103 10.3732L14.2202 14.7141C13.3774 14.9311 12.5347 15.7993 12.5347 16.8845V39.4571C11.4812 38.8059 10.4277 38.5889 9.37426 38.5889C5.37109 38.5889 2 42.0616 2 46.1854C2 50.3092 5.37109 53.7819 9.37426 53.7819C13.3774 53.7819 16.7485 50.3092 16.7485 46.1854V29.6901L39.9248 26.0004V35.1162C38.8713 34.6821 37.8178 34.4651 36.7644 34.248C32.7612 34.248 29.3901 37.7207 29.3901 41.8445C29.3901 45.9684 32.7612 49.4411 36.7644 49.4411C40.7675 49.4411 44.1386 45.9684 44.1386 41.8445V12.5437C44.1386 11.8925 43.9279 11.2414 43.5066 10.8073Z" fill="black"/>
</svg>
