<svg width="160" height="160" viewBox="0 0 160 160" fill="none" xmlns="http://www.w3.org/2000/svg">
<path d="M155.289 64.4374L137.455 61.409C136.446 58.2124 135.1 55.184 133.586 52.1556L144.017 37.5184C145.531 35.3312 145.363 32.3028 143.512 30.4522L129.211 16.1514C127.361 14.3007 124.332 13.9642 122.145 15.6467L107.508 26.0778C104.648 24.5636 101.451 23.2177 98.2545 22.2082L95.3943 4.54259C94.8896 1.85068 92.7024 0 90.0105 0H69.8212C67.1293 0 64.9422 1.85068 64.4374 4.54259L61.409 22.3764C58.2124 23.3859 55.184 24.7319 52.1556 26.2461L37.5184 15.8149C35.3312 14.3007 32.3028 14.469 30.4522 16.3197L16.1514 30.6204C14.3007 32.4711 13.9642 35.4995 15.6467 37.6866L26.0778 52.3239C24.5636 55.184 23.2177 58.3807 22.2082 61.5773L4.54259 64.4374C1.85068 64.9422 0 67.1293 0 69.8212V90.0105C0 92.7024 1.85068 94.8896 4.54259 95.3943L22.3764 98.4227C23.3859 101.619 24.7319 104.648 26.2461 107.676L15.8149 122.313C14.3007 124.501 14.469 127.529 16.3197 129.38L30.6204 143.68C32.4711 145.531 35.4995 145.868 37.6866 144.185L52.3239 133.754C55.184 135.268 58.3807 136.614 61.5773 137.624L64.6057 155.457C65.1104 158.149 67.2976 160 69.9895 160H90.1788C92.8707 160 95.0578 158.149 95.5626 155.457L98.4227 137.455C101.619 136.446 104.648 135.1 107.676 133.586L122.313 144.017C124.501 145.531 127.529 145.363 129.38 143.512L143.68 129.211C145.531 127.361 145.868 124.332 144.185 122.145L133.754 107.508C135.268 104.648 136.614 101.451 137.624 98.2545L155.457 95.2261C158.149 94.7213 160 92.5342 160 89.8423V69.8212C159.832 67.1293 157.981 64.9422 155.289 64.4374ZM79.9159 108.686C63.9327 108.686 51.1462 95.7308 51.1462 79.9159C51.1462 63.9327 64.1009 51.1462 79.9159 51.1462C95.7308 51.1462 108.686 63.9327 108.686 79.9159C108.686 95.8991 95.8991 108.686 79.9159 108.686Z" fill="#9FDFFF"/>
</svg>
