<svg width="200" height="160" viewBox="0 0 200 160" fill="none" xmlns="http://www.w3.org/2000/svg">
<path fill-rule="evenodd" clip-rule="evenodd" d="M5.88502 79.7787H42.5497C45.796 79.7787 48.4348 82.4142 48.4348 85.6759V154.103C48.4348 157.356 45.8047 160 42.5497 160L5.88502 159.991C2.63008 159.991 0 157.347 0 154.094V85.6672C0 82.4142 2.63008 79.7787 5.88502 79.7787ZM81.6632 0H118.328C121.574 0 124.213 2.63554 124.213 5.89723V154.096C124.213 157.349 121.583 159.993 118.328 159.993H81.6632C78.4169 159.993 75.7782 157.358 75.7782 154.096V5.89723C75.7782 2.64422 78.4083 0 81.6632 0ZM157.441 39.0721H194.115C197.361 39.0721 200 41.7077 200 44.9694V154.096C200 157.349 197.361 159.993 194.115 159.993H157.441C154.195 159.993 151.556 157.358 151.556 154.096V44.9694C151.556 41.7163 154.195 39.0721 157.441 39.0721Z" fill="#9FDFFF"/>
</svg>
