<svg width="56" height="56" viewBox="0 0 56 56" fill="none" xmlns="http://www.w3.org/2000/svg">
<path d="M37.579 8.49546V47.5015C37.579 49.3293 36.4578 50.9602 34.7207 51.6559C34.146 51.8878 33.5405 52 32.9478 52C31.747 52 30.5668 51.5437 29.679 50.6809L17.2865 38.6392H7.47274C4.45282 38.6392 2 36.2528 2 33.3202V22.6798C2 19.7448 4.45544 17.3609 7.47274 17.3609H17.2865L29.6764 5.31665C31.0003 4.02994 32.9837 3.64589 34.7232 4.34415C36.4577 5.0424 37.579 6.67009 37.579 8.49546ZM47.4342 15.231L44.1474 19.4852C46.9287 21.5175 48.5246 24.6196 48.5246 27.9985C48.5246 31.3799 46.9287 34.4793 44.1423 36.5093L47.429 40.766C51.6035 37.7188 54 33.0659 54 27.9985C54 22.9311 51.6035 18.276 47.4342 15.231Z" fill="black"/>
</svg>
